<?xml version="1.0" standalone="no"?>
<!DOCTYPE svg PUBLIC "-//W3C//DTD SVG 1.1//EN" "http://www.w3.org/Graphics/SVG/1.1/DTD/svg11.dtd">
<svg xmlns="http://www.w3.org/2000/svg">
<metadata>Copyright (C) 2020 by original authors @ fontello.com</metadata>
<defs>
<font id="fontello" horiz-adv-x="1000" >
<font-face font-family="fontello" font-weight="400" font-stretch="normal" units-per-em="1000" ascent="850" descent="-150" />
<missing-glyph horiz-adv-x="1000" />
<glyph glyph-name="home" unicode="&#xe800;" d="M994 242l-442 488c-14 15-32 23-52 23 0 0 0 0 0 0-20 0-38-8-52-23l-441-488c-10-10-9-26 1-35 5-5 11-7 17-7 7 0 14 3 19 8l106 118v-401c0-41 34-75 75-75h550c41 0 75 34 75 75v401l107-118c9-10 25-11 35-1 10 9 11 25 2 35z m-394-342h-200v225c0 14 11 25 25 25h150c14 0 25-11 25-25v-225z m200 25c0-14-11-25-25-25h-125v225c0 41-34 75-75 75h-150c-41 0-75-34-75-75v-225h-125c-14 0-25 11-25 25v456l285 315c4 5 9 7 15 7s11-2 15-7l285-315v-456z" horiz-adv-x="1000" />

<glyph glyph-name="apartment" unicode="&#xe801;" d="M700 550h50v-50h-50v50z m0-100h50v-50h-50v50z m0-100h50v-50h-50v50z m0-100h50v-50h-50v50z m0-200h50v-50h-50v50z m0 100h50v-50h-50v50z m-400 400h50v-50h-50v50z m0-100h50v-50h-50v50z m0-100h50v-50h-50v50z m0-100h50v-50h-50v50z m0-200h50v-50h-50v50z m0 100h50v-50h-50v50z m-100 400h50v-50h-50v50z m0-100h50v-50h-50v50z m0-100h50v-50h-50v50z m0-100h50v-50h-50v50z m0-200h50v-50h-50v50z m0 100h50v-50h-50v50z m200 400h50v-50h-50v50z m0-100h50v-50h-50v50z m0-100h50v-50h-50v50z m0-100h50v-50h-50v50z m0-200h50v-50h-50v50z m0 100h50v-50h-50v50z m525-250h-25v675c0 38-28 78-64 90l-236 78v82c0 8-4 15-10 20-6 5-15 6-22 4l-452-136c-37-11-66-49-66-88v-725h-25c-14 0-25-11-25-25s11-25 25-25h900c14 0 25 11 25 25s-11 25-25 25z m-105 717c16-5 30-25 30-42v-675h-250v790l220-73z m-720 8c0 16 14 36 30 40l420 126v-891h-450v725z" horiz-adv-x="1000" />

<glyph glyph-name="pencil" unicode="&#xe802;" d="M955 805c-28 28-65 44-105 44-40 0-77-16-105-44l-638-637c-2-3-4-6-5-9l-100-276c-4-9-1-19 5-26 5-5 12-7 18-7 3 0 6 0 9 1l275 100c3 2 6 4 9 6l637 638c28 28 44 65 44 105s-16 77-44 105z m-669-808l-219-80 80 219 553 554 140-140-554-553z m634 633l-45-45-140 140 45 45c19 19 44 29 70 29s51-10 70-29c19-19 29-44 29-70s-10-51-29-70z" horiz-adv-x="1000" />

<glyph glyph-name="magic" unicode="&#xe803;" d="M575 500c-14 0-25 11-25 25 0 69-56 125-125 125-14 0-25 11-25 25s11 25 25 25c69 0 125 56 125 125 0 14 11 25 25 25s25-11 25-25c0-69 56-125 125-125 14 0 25-11 25-25s-11-25-25-25c-69 0-125-56-125-125 0-14-11-25-25-25z m-60 175c25-15 45-35 60-60 15 25 35 45 60 60-25 15-45 35-60 60-15-25-35-45-60-60z m-440-325c-14 0-25 11-25 25 0 14-11 25-25 25-14 0-25 11-25 25s11 25 25 25c14 0 25 11 25 25 0 14 11 25 25 25s25-11 25-25c0-14 11-25 25-25 14 0 25-11 25-25s-11-25-25-25c-14 0-25-11-25-25 0-14-11-25-25-25z m832-297l-529 529c-14 14-33 22-53 22s-39-8-53-22l-29-29c-14-14-22-33-22-53s8-39 22-53l529-529c14-14 33-22 53-22s39 7 53 22l29 29c15 14 22 33 22 53s-7 39-22 53z m-629 465l29 29c5 5 11 7 18 7s13-2 18-7l72-72-65-65-72 72c-10 10-10 26 0 36z m594-536l-29-29c-5-5-11-7-18-7s-13 2-18 7l-422 422 65 65 422-422c10-10 10-26 0-36z m-697 618c-14 0-25 11-25 25 0 41-34 75-75 75-14 0-25 11-25 25s11 25 25 25c41 0 75 34 75 75 0 14 11 25 25 25s25-11 25-25c0-41 34-75 75-75 14 0 25-11 25-25s-11-25-25-25c-41 0-75-34-75-75 0-14-11-25-25-25z m-25 125c9-7 18-16 25-25 7 9 16 18 25 25-9 7-18 16-25 25-7-9-16-18-25-25z m25-625c-14 0-25 11-25 25 0 41-34 75-75 75-14 0-25 11-25 25s11 25 25 25c41 0 75 34 75 75 0 14 11 25 25 25s25-11 25-25c0-41 34-75 75-75 14 0 25-11 25-25s-11-25-25-25c-41 0-75-34-75-75 0-14-11-25-25-25z m-25 125c9-7 18-16 25-25 7 9 16 18 25 25-9 7-18 16-25 25-7-9-16-18-25-25z" horiz-adv-x="1000" />

<glyph glyph-name="drop" unicode="&#xe804;" d="M500-150c-81 0-156 33-212 92-56 61-88 143-88 233 0 147 66 252 135 364 54 86 109 175 141 293 3 11 13 18 24 18s21-7 24-18c32-118 88-207 141-293 70-112 135-217 135-364 0-90-31-173-87-233-56-59-132-92-213-92z m0 894c-34-88-79-161-122-231-69-110-128-205-128-338 0-157 108-275 250-275 143 0 250 118 250 275 0 133-59 228-127 337-44 71-89 144-123 232z" horiz-adv-x="1000" />

<glyph glyph-name="lighter" unicode="&#xe805;" d="M875 400h-34l-43 86c-4 9-13 14-23 14h-200c-14 0-25-11-25-25v-75h-61l-192 334c-7 12-22 16-34 9l-174-100c-12-7-16-22-9-34l200-346c5-8 13-13 22-13 4 0 8 1 12 3l136 79v-407c0-14 11-25 25-25h400c14 0 25 11 25 25v450c0 14-11 25-25 25z m-25-300h-50v150h50v-150z m-250 350h160l25-50h-185v50z m-289-141l-175 303 130 75 175-303-130-75z m189-359v400h325c0 0 0 0 0 0 0 0 0 0 0 0h25v-50h-75c-14 0-25-11-25-25v-200c0-14 11-25 25-25h75v-100h-350z m275 600c-37 0-56 18-64 33-17 28-14 71 8 130 15 40 33 73 34 74 5 8 13 13 22 13s17-5 22-13c1-1 19-34 34-74 22-59 25-102 8-130-8-15-26-33-64-33z m0 168c-3-7-6-15-9-23-23-61-15-82-12-87 1-2 4-8 21-8 17 0 20 6 21 8 3 5 11 26-12 87-3 8-6 16-9 23z" horiz-adv-x="1000" />

<glyph glyph-name="poop" unicode="&#xe806;" d="M853 185c-4 2-8 4-12 6 48 38 59 79 59 109 0 71-60 133-159 170 6 18 9 37 9 55 0 97-78 175-175 175-34 0-75 9-75 50 0 23 29 47 39 54 9 6 13 18 10 28s-13 18-24 18c-78 0-159-26-221-71-32-23-57-49-75-78-19-32-29-66-29-101 0-14 1-29 4-43-43-20-79-47-105-79-32-38-49-83-49-128 0-27 6-55 18-82-45-43-68-92-68-143 0-76 51-147 145-199 88-49 206-76 330-76 128 0 244 17 327 47 122 44 148 108 148 153 0 36-17 89-97 135z m-68-241c-78-28-188-44-310-44-116 0-225 25-306 70-77 43-119 98-119 155 0 40 21 73 43 98 6-9 12-17 19-24 40-46 95-80 156-98 2-1 5-1 7-1 11 0 21 7 24 18 4 13-4 27-17 31-104 30-182 116-182 201 0 61 44 120 117 158 26-72 81-132 150-157 2 0 5-1 8-1 10 0 20 6 24 17 4 13-3 27-16 32-76 26-133 113-133 201 0 51 30 100 83 139 38 27 83 46 129 55-7-13-12-28-12-44 0-48 33-100 125-100 69 0 125-56 125-125 0-13-2-27-6-39-21 5-42 10-65 14-14 2-26-7-29-21-2-14 7-26 21-29 69-11 128-32 170-61 27-19 59-49 59-89 0-32-21-61-64-85-45 16-99 28-158 35-14 1-26-8-28-22s8-26 22-28c84-10 156-30 206-59 33-18 72-49 72-91 0-53-63-87-115-106z" horiz-adv-x="1000" />

<glyph glyph-name="sun" unicode="&#xe807;" d="M475 100c-124 0-225 101-225 225s101 225 225 225 225-101 225-225-101-225-225-225z m0 400c-96 0-175-79-175-175s79-175 175-175 175 79 175 175-79 175-175 175z m0 100c-14 0-25 11-25 25v150c0 14 11 25 25 25s25-11 25-25v-150c0-14-11-25-25-25z m0-750c-14 0-25 11-25 25v150c0 14 11 25 25 25s25-11 25-25v-150c0-14-11-25-25-25z m-300 450h-150c-14 0-25 11-25 25s11 25 25 25h150c14 0 25-11 25-25s-11-25-25-25z m750 0h-150c-14 0-25 11-25 25s11 25 25 25h150c14 0 25-11 25-25s-11-25-25-25z m-700 250c-6 0-13 2-18 7l-100 100c-9 10-9 26 0 36s26 9 36 0l100-100c9-10 9-26 0-36-5-5-12-7-18-7z m-100-600c-6 0-13 2-18 7-9 10-9 26 0 36l100 100c10 9 26 9 36 0s9-26 0-36l-100-100c-5-5-12-7-18-7z m700 0c-6 0-13 2-18 7l-100 100c-9 10-9 26 0 36 10 9 26 9 36 0l100-100c9-10 9-26 0-36-5-5-12-7-18-7z m-100 600c-6 0-13 2-18 7-9 10-9 26 0 36l100 100c10 9 26 9 36 0 9-10 9-26 0-36l-100-100c-5-5-12-7-18-7z" horiz-adv-x="1000" />

<glyph glyph-name="moon" unicode="&#xe808;" d="M513-150c-137 0-266 53-363 150s-150 226-150 363c0 112 36 218 105 307 32 42 71 79 116 109 45 31 94 55 147 70 10 3 20 0 26-8s8-18 3-27c-32-63-47-123-47-189 0-234 191-425 425-425 66 0 126 15 189 47 9 5 19 4 27-3s11-16 8-26c-15-53-39-102-70-147-30-45-67-84-109-117-89-68-195-104-307-104z m-184 932c-169-72-279-235-279-419 0-255 208-463 463-463 184 0 347 110 419 279-51-20-103-29-157-29-127 0-246 49-336 139-90 90-139 209-139 336 0 54 9 106 29 157z" horiz-adv-x="1000" />

<glyph glyph-name="cloud" unicode="&#xe809;" d="M800 50h-500c-165 0-300 135-300 300s135 300 300 300c80 0 157-32 213-89 4 10 10 19 16 28 28 38 74 61 121 61 83 0 150-67 150-150 0-17-3-35-9-51 3 0 6 0 9 0 110 0 200-89 200-199s-90-200-200-200z m-500 550c-138 0-250-112-250-250s112-250 250-250h500c83 0 150 67 150 150s-67 149-150 149c-17 0-35-3-51-9-11-4-23 0-29 10s-6 23 2 31c18 19 28 43 28 69 0 55-45 100-100 100-32 0-61-15-80-41-12-15-19-34-20-53-1-10-8-19-18-22-10-3-21 1-27 10-6 7-12 15-18 22-47 53-116 84-187 84z" horiz-adv-x="1000" />

<glyph glyph-name="cloud-upload" unicode="&#xe80a;" d="M800 50h-175c-14 0-25 11-25 25s11 25 25 25h175c83 0 150 67 150 150s-67 149-150 149c-17 0-34-3-51-9-11-3-23 1-29 10-7 10-5 23 3 31 17 19 27 43 27 69 0 55-45 100-100 100-32 0-61-15-80-41-12-15-19-33-20-53 0-10-8-19-18-22s-21 1-27 10l0 0c-6 7-12 15-18 22-47 53-116 84-187 84-138 0-250-112-250-250 0-138 112-250 250-250h125c14 0 25-11 25-25s-11-25-25-25h-125c-165 0-300 135-300 300s135 300 300 300c80 0 157-32 213-89 4 10 10 19 16 28 28 38 74 61 121 61 83 0 150-67 150-150 0-18-3-35-9-51 3 0 6 0 9 0 110 0 200-89 200-199 0-110-90-200-200-200z m-157 193l-100 100c-10 9-26 9-36 0l-100-100c-9-10-9-26 0-36s26-9 36 0l57 58v-190c0-14 11-25 25-25s25 11 25 25v190l57-58c5-5 12-7 18-7s13 2 18 7c9 10 9 26 0 36z" horiz-adv-x="1000" />

<glyph glyph-name="cloud-download" unicode="&#xe80b;" d="M800 50h-125c-14 0-25 11-25 25s11 25 25 25h125c83 0 150 67 150 150s-67 149-150 149c-17 0-34-3-51-9-11-3-23 1-29 10-7 10-5 23 3 31 17 19 27 43 27 69 0 55-45 100-100 100-32 0-61-15-80-41-12-15-19-33-20-53 0-10-8-19-18-22s-21 1-27 10l0 0c-6 7-12 15-18 22-47 53-116 84-187 84-138 0-250-112-250-250 0-138 112-250 250-250h75c14 0 25-11 25-25s-11-25-25-25h-75c-165 0-300 135-300 300s135 300 300 300c80 0 157-32 213-89 4 10 10 19 16 28 28 38 74 61 121 61 83 0 150-67 150-150 0-18-3-35-9-51 3 0 6 0 9 0 110 0 200-89 200-199 0-110-90-200-200-200z m-157 143c-10 9-26 9-36 0l-57-58v190c0 14-11 25-25 25s-25-11-25-25v-190l-57 58c-10 9-26 9-36 0-9-10-9-26 0-36l100-100c5-5 12-7 18-7s13 2 18 7l100 100c9 10 9 26 0 36z" horiz-adv-x="1000" />

<glyph glyph-name="cloud-sync" unicode="&#xe80c;" d="M800 449c-3 0-6 0-9 0 6 16 9 33 9 51 0 83-67 150-150 150-47 0-93-23-121-61-6-9-12-18-16-28-56 57-133 89-213 89-165 0-300-135-300-300s135-300 300-300h500c110 0 200 90 200 200s-90 199-200 199z m0-349h-500c-138 0-250 112-250 250 0 138 112 250 250 250 71 0 140-31 187-84 6-7 12-15 18-22l0 0c6-9 17-13 27-10 10 3 18 12 18 22 1 20 8 38 20 53 19 26 48 41 80 41 55 0 100-45 100-100 0-26-10-50-27-69-8-8-10-21-3-31s18-13 29-10c17 6 34 9 51 9 83 0 150-67 150-149s-67-150-150-150z m-480 152c-6-1-13-2-20-2-55 0-100 45-100 100v15l7-8c5-5 12-7 18-7s13 2 18 7c9 10 9 26 0 36l-50 50c-10 9-26 9-36 0l-50-50c-9-10-9-26 0-36 10-9 26-9 36 0l7 8v-15c0-83 67-150 150-150 10 0 20 1 30 3 14 3 23 16 20 30s-16 22-30 19z m137 91l-7-8v15c0 83-67 150-150 150-10 0-20-1-30-3-14-3-22-16-20-29s16-23 30-20c6 1 13 2 20 2 55 0 100-45 100-100v-15l-7 8c-10 9-26 9-36 0-9-10-9-26 0-36l50-50c5-5 12-7 18-7s13 2 18 7l50 50c9 10 9 26 0 36-10 9-26 9-36 0z" horiz-adv-x="1000" />

<glyph glyph-name="cloud-check" unicode="&#xe80d;" d="M800 50h-475c-14 0-25 11-25 25s11 25 25 25h475c83 0 150 67 150 150s-67 150-150 150c-17 0-34-3-50-8-11-4-23 0-29 9-6 10-5 23 2 31 18 19 27 43 27 68 0 55-45 100-100 100-53 0-97-41-100-94 0-10-8-19-18-22-10-3-21 1-27 9-47 67-124 107-205 107-138 0-250-112-250-250 0-8 0-15 1-23 1-13-9-26-23-27-13-1-25 9-27 23-1 9-1 18-1 27 0 165 135 300 300 300 81 0 157-32 213-89 24 53 76 89 137 89 83 0 150-67 150-150 0-17-3-34-9-50 3 0 6 0 9 0 110 0 200-90 200-200s-90-200-200-200z m-625 25c-6 0-13 2-18 7l-100 100c-9 10-9 26 0 36s26 9 36 0l82-83 232 233c10 9 26 9 36 0 9-10 9-26 0-36l-250-250c-5-5-12-7-18-7z" horiz-adv-x="1000" />

<glyph glyph-name="db" unicode="&#xe80e;" d="M903 770c-24 16-59 30-103 43-87 24-203 37-325 37s-238-13-325-37c-44-13-78-27-103-43-31-21-47-44-47-70v-600c0-26 16-49 47-70 25-16 59-30 103-43 87-24 203-37 325-37s238 13 325 37c44 13 79 27 103 43 31 21 47 44 47 70v600c0 26-16 49-47 70z m-739-6c82 23 193 36 311 36s229-13 312-36c89-25 113-53 113-64s-24-39-113-64c-83-23-194-36-312-36s-229 13-311 36c-90 25-114 53-114 64s24 39 114 64z m623-728c-83-23-194-36-312-36s-229 13-311 36c-90 25-114 53-114 64v128c25-15 58-29 100-40 87-25 203-38 325-38s238 13 325 38c42 11 75 25 100 40v-128c0-11-24-39-113-64z m0 200c-83-23-194-36-312-36s-229 13-311 36c-90 25-114 53-114 64v128c25-15 58-29 100-40 87-25 203-38 325-38s238 13 325 38c42 11 75 25 100 40v-128c0-11-24-39-113-64z m0 200c-83-23-194-36-312-36s-229 13-311 36c-90 25-114 53-114 64v128c25-15 58-29 100-40 87-25 203-38 325-38s238 13 325 38c42 11 75 25 100 40v-128c0-11-24-39-113-64z" horiz-adv-x="1000" />

<glyph glyph-name="lock" unicode="&#xe80f;" d="M725 450h-25v75c0 124-101 225-225 225s-225-101-225-225v-75h-25c-41 0-75-34-75-75v-400c0-41 34-75 75-75h500c41 0 75 34 75 75v400c0 41-34 75-75 75z m-425 75c0 97 79 175 175 175s175-78 175-175v-75h-350v75z m450-550c0-14-11-25-25-25h-500c-14 0-25 11-25 25v400c0 14 11 25 25 25h500c14 0 25-11 25-25v-400z" horiz-adv-x="1000" />

<glyph glyph-name="gear" unicode="&#xe810;" d="M382-135c-2 0-5 0-7 1-45 11-88 29-128 53-11 6-16 21-9 33 8 15 12 31 12 48 0 55-45 100-100 100-17 0-33-4-48-12-12-7-26-2-33 9-24 40-42 83-53 128-4 13 4 26 16 30 41 14 68 52 68 95s-27 81-68 95c-12 4-20 17-16 30 11 45 29 88 53 128 7 12 21 16 33 9 15-8 31-12 48-12 55 0 100 45 100 100 0 17-4 33-12 48-7 12-2 27 9 33 40 24 83 42 128 53 13 4 26-3 30-16 14-41 52-68 95-68s81 27 95 68c4 13 17 20 30 16 45-11 88-29 128-53 12-6 16-21 9-33-8-15-12-31-12-48 0-55 45-100 100-100 17 0 33 4 48 12 12 7 27 3 33-9 24-40 42-83 53-128 4-13-3-26-16-30-41-14-68-52-68-95s27-81 68-95c13-4 20-17 16-30-11-45-29-88-53-128-6-11-21-16-33-9-15 8-31 12-48 12-55 0-100-45-100-100 0-17 4-33 12-48 7-12 3-27-9-33-40-24-83-42-128-53-13-4-26 3-30 16-14 41-52 68-95 68s-81-27-95-68c-3-11-13-17-23-17z m118 135c56 0 107-31 133-80 26 8 51 18 75 31-5 16-8 32-8 49 0 83 67 150 150 150 17 0 33-3 49-8 13 24 23 49 31 75-49 26-80 77-80 133s31 107 80 133c-8 26-18 51-31 75-16-5-32-8-49-8-83 0-150 67-150 150 0 17 3 33 8 49-24 13-49 23-75 31-26-49-77-80-133-80s-107 31-133 80c-26-8-51-18-75-31 5-16 8-32 8-49 0-83-67-150-150-150-17 0-33 3-49 8-13-24-23-49-31-75 49-26 80-77 80-133s-31-107-80-133c8-26 18-51 31-75 16 5 32 8 49 8 83 0 150-67 150-150 0-17-3-33-8-49 24-13 49-23 75-31 26 49 77 80 133 80z m0 200c-83 0-150 67-150 150s67 150 150 150 150-67 150-150-67-150-150-150z m0 250c-55 0-100-45-100-100s45-100 100-100c55 0 100 45 100 100s-45 100-100 100z" horiz-adv-x="1000" />

<glyph glyph-name="trash" unicode="&#xe811;" d="M775 750h-175v25c0 41-34 75-75 75h-100c-41 0-75-34-75-75v-25h-175c-41 0-75-34-75-75v-50c0-33 21-60 50-71v-629c0-41 34-75 75-75h500c41 0 75 34 75 75v629c29 11 50 38 50 71v50c0 41-34 75-75 75z m-375 25c0 14 11 25 25 25h100c14 0 25-11 25-25v-25h-150v25z m325-875h-500c-14 0-25 11-25 25v625h550v-625c0-14-11-25-25-25z m75 725c0-14-11-25-25-25h-600c-14 0-25 11-25 25v50c0 14 11 25 25 25h600c14 0 25-11 25-25v-50z m-175-125c-14 0-25-11-25-25v-500c0-14 11-25 25-25s25 11 25 25v500c0 14-11 25-25 25z m-150 0c-14 0-25-11-25-25v-500c0-14 11-25 25-25s25 11 25 25v500c0 14-11 25-25 25z m-150 0c-14 0-25-11-25-25v-500c0-14 11-25 25-25s25 11 25 25v500c0 14-11 25-25 25z" horiz-adv-x="1000" />

<glyph glyph-name="dice" unicode="&#xe812;" d="M275 50c-41 0-75 34-75 75s34 75 75 75 75-34 75-75-34-75-75-75z m0 100c-14 0-25-11-25-25s11-25 25-25 25 11 25 25-11 25-25 25z m0 100c-41 0-75 34-75 75s34 75 75 75 75-34 75-75-34-75-75-75z m0 100c-14 0-25-11-25-25s11-25 25-25 25 11 25 25-11 25-25 25z m0 100c-41 0-75 34-75 75s34 75 75 75 75-34 75-75-34-75-75-75z m0 100c-14 0-25-11-25-25s11-25 25-25 25 11 25 25-11 25-25 25z m400-100c-41 0-75 34-75 75s34 75 75 75 75-34 75-75-34-75-75-75z m0 100c-14 0-25-11-25-25s11-25 25-25 25 11 25 25-11 25-25 25z m0-300c-41 0-75 34-75 75s34 75 75 75 75-34 75-75-34-75-75-75z m0 100c-14 0-25-11-25-25s11-25 25-25 25 11 25 25-11 25-25 25z m0-300c-41 0-75 34-75 75s34 75 75 75 75-34 75-75-34-75-75-75z m0 100c-14 0-25-11-25-25s11-25 25-25 25 11 25 25-11 25-25 25z m100-250h-600c-69 0-125 56-125 125v600c0 69 56 125 125 125h600c69 0 125-56 125-125v-600c0-69-56-125-125-125z m-600 800c-41 0-75-34-75-75v-600c0-41 34-75 75-75h600c41 0 75 34 75 75v600c0 41-34 75-75 75h-600z" horiz-adv-x="1000" />

<glyph glyph-name="heart" unicode="&#xe813;" d="M475-100c-4 0-8 1-12 3-5 3-116 65-230 168-67 60-120 122-159 184-49 78-74 157-74 233 0 144 118 262 263 262 49 0 101-18 146-52 27-19 49-43 66-68 17 25 39 49 66 68 46 34 98 52 147 52 144 0 262-118 262-262 0-76-25-155-74-233-39-62-92-124-159-184-114-103-225-165-230-168-4-2-8-3-12-3z m-212 800c-118 0-213-95-213-212 0-152 118-291 216-380 88-79 177-135 209-154 32 19 121 75 209 154 99 89 216 228 216 380 0 117-95 212-212 212-86 0-168-70-189-133-4-10-13-17-24-17s-20 7-24 17c-21 63-103 133-188 133z" horiz-adv-x="1000" />

<glyph glyph-name="star" unicode="&#xe814;" d="M775-100c-4 0-8 1-12 3l-263 144-263-144c-8-5-19-4-26 2-8 5-12 15-11 24l48 287-191 191c-6 7-9 17-6 26s11 15 20 17l287 48 120 238c4 9 13 14 22 14s18-5 22-14l120-238 287-48c9-2 17-8 20-17s0-19-6-26l-191-191 48-287c1-9-3-19-10-24-5-3-10-5-15-5z m-275 200c4 0 8-1 12-3l230-126-42 250c-1 8 2 16 7 22l166 165-252 42c-8 2-15 7-18 14l-103 205-103-205c-3-7-10-12-18-14l-252-42 166-165c5-6 8-14 7-22l-42-250 230 126c4 2 8 3 12 3z" horiz-adv-x="1000" />

<glyph glyph-name="star-half" unicode="&#xe815;" d="M775-100c-4 0-8 1-12 3l-150 82c-12 6-17 22-10 34 7 12 22 16 34 10l105-58-8 50c-3 14 7 26 20 29 14 2 27-7 29-21l17-100c1-9-3-19-10-24-5-3-10-5-15-5z m-33 200c-12 0-23 9-25 21l-17 100c-1 8 2 16 7 22l50 50c10 9 26 9 36 0 9-10 9-26 0-36l-41-41 14-87c3-13-7-26-20-29-2 0-3 0-4 0z m133 250c-6 0-13 2-18 7-9 10-9 26 0 36l16 15-102 17c-14 3-23 16-21 29s16 23 29 21l150-25c9-2 17-8 20-17s0-19-6-26l-50-50c-5-5-12-7-18-7z m-200 92c-1 0-3 0-4 0l-50 8c-8 2-15 7-18 14l-50 100c-6 12-1 27 11 33 12 7 27 2 33-11l45-88 37-7c14-2 23-15 21-28-2-13-13-21-25-21z m-450-542c-5 0-10 2-14 5-8 5-12 15-11 24l48 287-191 191c-6 7-9 17-6 26s11 15 20 17l287 48 120 238c4 9 13 14 22 14 0 0 0 0 0 0 10 0 18-5 22-14l25-50c7-12 2-27-11-33-12-6-27-1-33 11l-3 5-103-205c-3-7-10-12-18-14l-252-42 166-165c5-6 8-14 7-22l-42-250 230 126c8 4 17 4 24 0l25-14c12-6 17-21 10-34-7-12-22-16-34-10l-13 8-263-144c-4-2-8-3-12-3z" horiz-adv-x="1000" />

<glyph glyph-name="star-empty" unicode="&#xe816;" d="M275 433c-12 0-23 9-25 21-2 14 7 27 21 29l87 15 20 38c6 13 21 18 33 11 13-6 18-21 11-33l-25-50c-3-7-10-12-18-14l-100-16c-1-1-3-1-4-1z m-150-83c-6 0-13 2-18 7l-50 50c-6 7-9 17-6 26s11 15 20 17l100 16c14 3 26-7 29-20 2-14-7-27-21-29l-52-9 16-15c9-10 9-26 0-36-5-5-12-7-18-7z m617-250c-12 0-23 9-25 21l-17 100c-1 8 2 16 7 22l50 50c10 9 26 9 36 0 9-10 9-26 0-36l-41-41 14-87c3-13-7-26-20-29-2 0-3 0-4 0z m33-200c-4 0-8 1-12 3l-150 82c-12 6-17 22-10 34 7 12 22 16 34 10l105-58-8 50c-3 14 7 26 20 29 14 2 27-7 29-21l17-100c1-9-3-19-10-24-5-3-10-5-15-5z m-508 250c-2 0-3 0-4 0-14 3-23 16-21 29l6 37-41 41c-9 10-9 26 0 36s26 9 36 0l50-50c5-6 8-14 7-22l-9-50c-2-12-12-21-24-21z m-42-250c-5 0-10 2-14 5-8 5-12 15-11 24l25 150c3 14 16 23 29 21 14-3 23-15 21-29l-17-100 55 31c12 6 27 2 34-11 7-12 2-27-10-33l-100-55c-4-2-8-3-12-3z m200 109c-9 0-17 5-22 13-7 12-2 27 10 34l75 41c8 4 17 4 24 0l25-14c12-6 17-21 10-34-7-12-22-16-34-10l-13 8-63-35c-4-2-8-3-12-3z m450 341c-6 0-13 2-18 7-9 10-9 26 0 36l16 15-102 17c-14 3-23 16-21 29s16 23 29 21l150-25c9-2 17-8 20-17s0-19-6-26l-50-50c-5-5-12-7-18-7z m-200 92c-1 0-3 0-4 0l-50 8c-8 2-15 7-18 14l-50 100c-6 12-1 27 11 33 12 7 27 2 33-11l45-88 37-7c14-2 23-15 21-28-2-13-13-21-25-21z m-225 158c-4 0-8 1-11 3-12 6-17 21-11 33l50 100c4 9 13 14 22 14 0 0 0 0 0 0 10 0 18-5 22-14l25-50c7-12 2-27-11-33-12-6-27-1-33 11l-3 5-28-55c-4-9-13-14-22-14z" horiz-adv-x="1000" />

<glyph glyph-name="flag" unicode="&#xe817;" d="M75-100c-14 0-25 11-25 25v750c0 14 11 25 25 25s25-11 25-25v-750c0-14-11-25-25-25z m100 450c-5 0-10 2-15 5-11 8-13 24-5 35 3 5 84 110 195 110 85 0 141-30 190-56 44-24 82-44 135-44 110 0 188 104 233 186-35-20-80-36-133-36-110 0-167 57-218 107-49 50-92 93-182 93-111 0-179-89-180-90-8-11-24-13-35-5s-13 24-5 35c3 5 84 110 220 110 110 0 167-57 218-107 49-50 92-93 182-93 111 0 179 89 180 90 7 10 21 13 32 7 11-5 16-18 12-30-1-3-27-79-78-156-31-46-64-82-100-109-46-34-95-52-146-52-66 0-113 25-158 50-49 26-95 50-167 50-86 0-154-89-155-90-5-6-12-10-20-10z" horiz-adv-x="1000" />

<glyph glyph-name="message" unicode="&#xe818;" d="M875 550h-800c-41 0-75-34-75-75v-450c0-41 34-75 75-75h800c41 0 75 34 75 75v450c0 41-34 75-75 75z m0-50c2 0 3 0 4 0l-376-251c-15-10-41-10-56 0l-376 251c1 0 3 0 4 0h800z m0-500h-800c-14 0-25 11-25 25v428l370-246c15-10 35-16 55-16s40 6 56 16l369 246v-428c0-14-11-25-25-25z" horiz-adv-x="1000" />

<glyph glyph-name="clip" unicode="&#xe819;" d="M475-150c-124 0-225 101-225 225v600c0 97 79 175 175 175s175-78 175-175v-550c0-69-56-125-125-125s-125 56-125 125v300c0 14 11 25 25 25s25-11 25-25v-300c0-41 34-75 75-75 41 0 75 34 75 75v550c0 69-56 125-125 125s-125-56-125-125v-600c0-97 79-175 175-175s175 78 175 175v350c0 14 11 25 25 25s25-11 25-25v-350c0-124-101-225-225-225z" horiz-adv-x="1000" />

<glyph glyph-name="inbox" unicode="&#xe81a;" d="M978 331l-135 308c-15 34-56 61-93 61h-500c-37 0-78-27-93-61l-135-308c-12-28-22-75-22-106v-200c0-41 34-75 75-75h850c41 0 75 34 75 75v200c0 31-10 78-22 106z m-775 288c7 16 29 31 47 31h500c18 0 40-15 47-31l135-308c2-4 3-8 5-12-4 1-8 1-12 1h-300c-14 0-25-11-25-25v-25c0-55-45-100-100-100s-100 45-100 100v25c0 14-11 25-25 25h-300c-4 0-8 0-11-1 1 4 2 8 4 12l135 308z m747-594c0-14-11-25-25-25h-850c-14 0-25 11-25 25v200c0 14 11 25 25 25h275c0-83 67-150 150-150s150 67 150 150h275c14 0 25-11 25-25v-200z" horiz-adv-x="1000" />

<glyph glyph-name="eye" unicode="&#xe81b;" d="M994 342c-3 2-59 65-148 128-52 38-105 68-157 89-65 27-129 41-189 41s-124-14-189-41c-52-21-104-51-157-89-88-63-145-126-148-128-8-10-8-24 0-34 3-2 60-65 148-128 53-38 105-68 157-89 65-27 129-41 189-41s124 14 189 41c52 21 104 51 157 89 89 63 145 126 148 128 8 10 8 24 0 34z m-365 186c45-38 71-94 71-153 0-110-90-200-200-200-110 0-200 90-200 200 0 59 26 115 71 153 41 14 85 22 129 22 44 0 88-8 129-22z m187-308c-77-55-194-120-316-120s-239 65-316 120c-58 41-102 83-124 105 22 22 66 64 124 105 27 19 58 39 93 58-18-35-27-73-27-113 0-138 112-250 250-250 138 0 250 112 250 250 0 40-9 78-27 113 35-19 66-39 93-58 58-41 102-83 124-105-22-22-66-64-124-105z" horiz-adv-x="1000" />

<glyph glyph-name="print" unicode="&#xe81c;" d="M925 650h-75v125c0 41-34 75-75 75h-550c-41 0-75-34-75-75v-125h-75c-41 0-75-34-75-75v-450c0-41 34-75 75-75h75v-125c0-41 34-75 75-75h550c41 0 75 34 75 75v125h75c41 0 75 34 75 75v450c0 41-34 75-75 75z m-725 125c0 14 11 25 25 25h550c14 0 25-11 25-25v-125h-600v125z m575-875h-550c-14 0-25 11-25 25v325h600v-325c0-14-11-25-25-25z m175 225c0-14-11-25-25-25h-75v150h25c14 0 25 11 25 25s-11 25-25 25h-750c-14 0-25-11-25-25s11-25 25-25h25v-150h-75c-14 0-25 11-25 25v450c0 14 11 25 25 25h850c14 0 25-11 25-25v-450z m-225 25h-450c-14 0-25 11-25 25s11 25 25 25h450c14 0 25-11 25-25s-11-25-25-25z m0-100h-450c-14 0-25 11-25 25s11 25 25 25h450c14 0 25-11 25-25s-11-25-25-25z m0-100h-450c-14 0-25 11-25 25s11 25 25 25h450c14 0 25-11 25-25s-11-25-25-25z m100 450c-41 0-75 34-75 75s34 75 75 75 75-34 75-75-34-75-75-75z m0 100c-14 0-25-11-25-25s11-25 25-25 25 11 25 25-11 25-25 25z" horiz-adv-x="1000" />

<glyph glyph-name="file" unicode="&#xe81d;" d="M893 568l-225 225c-5 4-11 7-18 7h-475c-41 0-75-34-75-75v-800c0-41 34-75 75-75h650c41 0 75 34 75 75v625c0 7-3 13-7 18z m-53-18h-165c-14 0-25 11-25 25v165l190-190z m10-625c0-14-11-25-25-25h-650c-14 0-25 11-25 25v800c0 14 11 25 25 25h425v-175c0-41 34-75 75-75h175v-575z" horiz-adv-x="1000" />

<glyph glyph-name="file-add" unicode="&#xe81e;" d="M893 568l-225 225c-5 4-11 7-18 7h-475c-41 0-75-34-75-75v-800c0-41 34-75 75-75h650c41 0 75 34 75 75v625c0 7-3 13-7 18z m-53-18h-165c-14 0-25 11-25 25v165l190-190z m-15-650h-650c-14 0-25 11-25 25v800c0 14 11 25 25 25h425v-175c0-41 34-75 75-75h175v-575c0-14-11-25-25-25z m-250 300h-125v125c0 14-11 25-25 25s-25-11-25-25v-125h-125c-14 0-25-11-25-25s11-25 25-25h125v-125c0-14 11-25 25-25s25 11 25 25v125h125c14 0 25 11 25 25s-11 25-25 25z" horiz-adv-x="1000" />

<glyph glyph-name="enter" unicode="&#xe81f;" d="M875 750h-450c-41 0-75-34-75-75v-150c0-14 11-25 25-25s25 11 25 25v150c0 14 11 25 25 25h378l-192-82c-34-15-61-56-61-93v-475h-125c-14 0-25 11-25 25v150c0 14-11 25-25 25s-25-11-25-25v-150c0-41 34-75 75-75h125v-75c0-22 9-40 25-50 8-6 19-9 29-9 9 0 18 2 27 6l258 110c34 15 61 56 61 93v600c0 41-34 75-75 75z m25-675c0-17-15-40-31-47l-258-110c-5-2-8-2-9-2-1 1-2 4-2 9v600c0 18 15 40 31 47l267 114c1-3 2-7 2-11v-600z m-482 318l-150 150c-10 9-26 9-36 0s-9-26 0-36l108-107h-315c-14 0-25-11-25-25s11-25 25-25h315l-108-107c-9-10-9-26 0-36 5-5 12-7 18-7s13 2 18 7l150 150c9 10 9 26 0 36z" horiz-adv-x="1000" />

<glyph glyph-name="exit" unicode="&#xe820;" d="M575 450c14 0 25 11 25 25v200c0 41-34 75-75 75h-450c-41 0-75-34-75-75v-600c0-37 27-78 61-93l258-110c9-4 18-6 27-6 11 0 21 3 29 9 16 10 25 28 25 50v75h125c41 0 75 34 75 75v200c0 14-11 25-25 25s-25-11-25-25v-200c0-14-11-25-25-25h-125v475c0 37-27 78-61 93l-192 82h378c14 0 25-11 25-25v-200c0-14 11-25 25-25z m-256 122c16-7 31-29 31-47v-600c0-5-1-8-2-9-1 0-4 0-9 2l-258 110c-16 7-31 30-31 47v600c0 4 1 8 3 11l266-114z m599-179l-150 150c-10 9-26 9-36 0-9-10-9-26 0-36l108-107h-315c-14 0-25-11-25-25s11-25 25-25h315l-108-107c-9-10-9-26 0-36 5-5 12-7 18-7s13 2 18 7l150 150c9 10 9 26 0 36z" horiz-adv-x="1000" />

<glyph glyph-name="graduation-hat" unicode="&#xe821;" d="M933 499l-450 150c-5 1-11 1-16 0l-450-150c-10-4-17-13-17-24s7-20 17-24l133-44v-132c0-7 3-13 7-18 5-4 110-107 318-107 76 0 146 14 210 41 13 5 18 20 13 32-5 13-20 19-33 14-57-25-121-37-190-37-97 0-169 25-212 46-31 16-53 32-63 40v104l267-89c3-1 5-1 8-1s5 0 8 1l267 89v-44c-29-11-50-38-50-71 0-30 18-57 45-68l-44-176c-2-7 0-15 4-21s12-10 20-10h100c8 0 15 4 20 10s6 14 4 21l-44 176c27 11 45 38 45 68 0 33-21 60-50 71v61l133 44c10 4 17 13 17 24s-7 20-17 24z m-158-199c14 0 25-11 25-25s-11-25-25-25-25 11-25 25 11 25 25 25z m-18-250l18 72 18-72h-36z m16 401l-294 49c-13 2-26-7-29-21-2-13 7-26 21-29l201-33-197-66-371 124 371 124 371-124-73-24z" horiz-adv-x="1000" />

<glyph glyph-name="license" unicode="&#xe822;" d="M925-50h-850c-41 0-75 34-75 75v650c0 41 34 75 75 75h850c41 0 75-34 75-75v-650c0-41-34-75-75-75z m-850 750c-14 0-25-11-25-25v-650c0-14 11-25 25-25h850c14 0 25 11 25 25v650c0 14-11 25-25 25h-850z m400-150h-300c-14 0-25 11-25 25s11 25 25 25h300c14 0 25-11 25-25s-11-25-25-25z m0-150h-300c-14 0-25 11-25 25s11 25 25 25h300c14 0 25-11 25-25s-11-25-25-25z m0-100h-300c-14 0-25 11-25 25s11 25 25 25h300c14 0 25-11 25-25s-11-25-25-25z m0-100h-300c-14 0-25 11-25 25s11 25 25 25h300c14 0 25-11 25-25s-11-25-25-25z m-50-100h-250c-14 0-25 11-25 25s11 25 25 25h250c14 0 25-11 25-25s-11-25-25-25z m472 423l-40 29-16 48h-50l-41 30-41-30h-50l-15-48-41-29 15-48-15-48 41-29 6-21c0 0 0-1 0-2v-250c0-10 6-19 15-23 10-4 21-2 28 5l57 58 57-58c5-4 12-7 18-7 3 0 7 1 10 2 9 4 15 13 15 23v250c0 1 0 2 0 2l7 21 40 29-15 48 15 48z m-235-19l24 18 9 28h31l24 18 24-18h31l9-28 24-18-9-29 9-29-24-17-9-29h-31l-24-18-24 18h-31l-9 29-24 17 9 29-9 29z m106-286c-10 9-26 9-36 0l-32-33v165h9l41-30 41 30h9v-165l-32 33z" horiz-adv-x="1000" />

<glyph glyph-name="music-note" unicode="&#xe823;" d="M991 794c-6 5-13 7-20 6l-550-100c-12-3-21-13-21-25v-570c-7 5-14 9-22 13-42 21-96 32-153 32s-111-11-153-32c-46-23-72-56-72-93s26-70 72-93c42-21 96-32 153-32s111 11 153 32c46 23 72 56 72 93v504l500 93v-417c-7 5-14 9-22 13-42 21-96 32-153 32s-111-11-153-32c-46-23-72-56-72-93s26-70 72-93c42-21 96-32 153-32s111 11 153 32c46 23 72 56 72 93v650c0 7-3 14-9 19z m-766-844c-100 0-175 40-175 75s75 75 175 75 175-40 175-75-75-75-175-75z m225 630v74l500 91v-73l-500-92z m325-530c-100 0-175 40-175 75s75 75 175 75c100 0 175-40 175-75s-75-75-175-75z" horiz-adv-x="1000" />

<glyph glyph-name="film-play" unicode="&#xe824;" d="M375 100c-4 0-8 1-11 3-9 4-14 13-14 22v450c0 10 5 18 14 22 8 5 18 4 26-2l300-225c6-5 10-12 10-20s-4-15-10-20l-300-225c-4-3-10-5-15-5z m25 425v-350l233 175-233 175z m575 225h-950c-14 0-25-11-25-25v-750c0-14 11-25 25-25h950c14 0 25 11 25 25v750c0 14-11 25-25 25z m-825-450h-100v100h100v-100z m0 150h-100v100h100v-100z m-100-200h100v-100h-100v100z m150 450h600v-700h-600v700z m650-300h100v-100h-100v100z m0 50v100h100v-100h-100z m0-200h100v-100h-100v100z m100 350h-100v100h100v-100z m-800 100v-100h-100v100h100z m-100-600h100v-100h-100v100z m800-100v100h100v-100h-100z" horiz-adv-x="1000" />

<glyph glyph-name="video-cam" unicode="&#xe825;" d="M957-3c0 0 0 0 0 0-13 0-25 5-37 15l-172 137c-27 22-48 66-48 101v150c0 35 21 79 48 101l172 137c12 10 24 15 37 15 21 0 43-17 43-53v-550c0-14-3-26-9-35-8-11-21-18-34-18z m-7 601l-170-136c-16-13-30-42-30-62v-150c0-20 14-49 30-62l170-136v546z m-375-598h-500c-41 0-75 34-75 75v500c0 41 34 75 75 75h500c41 0 75-34 75-75v-500c0-41-34-75-75-75z m-500 600c-14 0-25-11-25-25v-500c0-14 11-25 25-25h500c14 0 25 11 25 25v500c0 14-11 25-25 25h-500z" horiz-adv-x="1000" />

<glyph glyph-name="cam" unicode="&#xe826;" d="M475 100c-124 0-225 101-225 225s101 225 225 225c124 0 225-101 225-225s-101-225-225-225z m0 400c-96 0-175-78-175-175s79-175 175-175 175 79 175 175-78 175-175 175z m400-550h-800c-41 0-75 34-75 75v500c0 41 34 75 75 75h75c21 0 53 13 68 28l29 29c24 25 69 43 103 43h250c34 0 79-18 103-43l29-29c15-15 47-28 68-28h75c41 0 75-34 75-75v-500c0-41-34-75-75-75z m-800 600c-14 0-25-11-25-25v-500c0-14 11-25 25-25h800c14 0 25 11 25 25v500c0 14-11 25-25 25h-75c-34 0-79 18-103 43l-29 29c-15 15-47 28-68 28h-250c-21 0-53-13-68-28l-29-29c-24-25-69-43-103-43h-75z" horiz-adv-x="1000" />

<glyph glyph-name="picture" unicode="&#xe827;" d="M925-150h-850c-41 0-75 34-75 75v850c0 41 34 75 75 75h850c41 0 75-34 75-75v-850c0-41-34-75-75-75z m-850 950c-14 0-25-11-25-25v-850c0-14 11-25 25-25h850c14 0 25 11 25 25v850c0 14-11 25-25 25h-850z m575-400c-55 0-100 45-100 100s45 100 100 100 100-45 100-100-45-100-100-100z m0 150c-28 0-50-22-50-50s22-50 50-50 50 22 50 50-22 50-50 50z m225 200h-750c-14 0-25-11-25-25v-600c0-14 11-25 25-25h750c14 0 25 11 25 25v600c0 14-11 25-25 25z m-725-484l161 180c4 5 9 7 15 7 5 0 11-2 15-7l277-296h-468v116z m700-116h-164l-309 331c-13 14-32 23-52 22-20 0-38-8-52-24l-123-138v359h700v-550z" horiz-adv-x="1000" />

<glyph glyph-name="book" unicode="&#xe828;" d="M725-50h-500c-14 0-25 11-25 25s11 25 25 25h500c14 0 25-11 25-25s-11-25-25-25z m100 750c-14 0-25-11-25-25v-750c0-14-11-25-25-25h-550c-41 0-75 34-75 75s34 75 75 75h450c41 0 75 34 75 75v600c0 41-34 75-75 75h-500c-41 0-75-34-75-75v-750c0-69 56-125 125-125h550c41 0 75 34 75 75v750c0 14-11 25-25 25z m-650 50h500c14 0 25-11 25-25v-600c0-14-11-25-25-25h-450c-28 0-54-9-75-25v650c0 14 11 25 25 25z" horiz-adv-x="1000" />

<glyph glyph-name="bookmark" unicode="&#xe829;" d="M775-150c-7 0-14 3-19 9l-281 328-281-328c-7-8-18-11-28-7-9 3-16 12-16 23v900c0 14 11 25 25 25h600c14 0 25-11 25-25v-900c0-11-6-20-16-23-3-2-6-2-9-2z m-300 400c7 0 14-3 19-9l256-298v807h-550v-807l256 298c5 6 12 9 19 9z" horiz-adv-x="1000" />

<glyph glyph-name="user" unicode="&#xe82a;" d="M475 300c-152 0-275 123-275 275s123 275 275 275 275-123 275-275-123-275-275-275z m0 500c-124 0-225-101-225-225s101-225 225-225c124 0 225 101 225 225s-101 225-225 225z m400-950h-800c-41 0-75 34-75 75 0 3 1 84 61 165 36 47 84 84 144 111 73 33 164 49 270 49 106 0 197-16 270-49 60-27 109-64 144-111 60-81 61-162 61-165 0-41-34-75-75-75z m-400 350c-174 0-303-48-372-138-52-67-53-136-53-137 0-14 11-25 25-25h800c14 0 25 11 25 25 0 1-1 70-53 137-69 90-198 138-372 138z" horiz-adv-x="1000" />

<glyph glyph-name="user-1" unicode="&#xe82b;" d="M925-50h-550c-41 0-75 34-75 75 0 2 1 60 46 116 27 32 62 58 107 76 53 22 120 33 197 33s144-11 197-33c45-18 81-44 107-76 46-56 46-114 46-116 0-41-34-75-75-75z m-575 75c0-14 11-25 25-25h550c14 0 25 11 25 25 0 2-2 45-37 87-49 57-140 88-263 88s-214-31-263-88c-35-42-37-85-37-87z m300 275c-110 0-200 90-200 200 0 110 90 200 200 200s200-90 200-200c0-110-90-200-200-200z m0 350c-83 0-150-67-150-150s67-150 150-150 150 67 150 150-67 150-150 150z m-425-700h-150c-41 0-75 34-75 75 0 2 0 46 33 90 19 25 45 45 77 59 38 17 85 26 140 26 9 0 18 0 26-1 14 0 25-12 24-26-1-14-12-24-26-24-8 1-16 1-24 1-195 0-200-119-200-125 0-14 11-25 25-25h150c14 0 25-11 25-25s-11-25-25-25z m25 300c-83 0-150 67-150 150s67 150 150 150 150-67 150-150-67-150-150-150z m0 250c-55 0-100-45-100-100s45-100 100-100 100 45 100 100c0 55-45 100-100 100z" horiz-adv-x="1000" />

<glyph glyph-name="tshirt" unicode="&#xe82c;" d="M675-100h-400c-41 0-75 34-75 75v465l-117-39c-13-4-27 3-32 16l-50 150c-4 12 2 25 13 30l300 150c8 4 17 4 24-1s12-12 12-21c0-69 56-125 125-125s125 56 125 125c0 9 5 17 12 21 7 5 16 5 24 1l300-150c11-5 17-18 13-30l-50-150c-5-13-19-20-32-16l-117 39v-465c0-41-34-75-75-75z m-450 600c5 0 10-2 15-5 6-4 10-12 10-20v-500c0-14 11-25 25-25h400c14 0 25 11 25 25v500c0 8 4 16 10 20 7 5 15 6 23 4l126-42 35 105-248 125c-18-78-88-137-171-137-83 0-153 59-171 137l-248-125 35-105 126 42c3 1 5 1 8 1z" horiz-adv-x="1000" />

<glyph glyph-name="store" unicode="&#xe82d;" d="M900 375v50c0 4-1 8-3 11l-100 200c-4 9-12 14-22 14h-600c-9 0-18-5-22-14l-100-200c-2-3-3-7-3-11v-50c0-41 20-77 50-100v-325h-25c-14 0-25-11-25-25s11-25 25-25h800c14 0 25 11 25 25s-11 25-25 25h-25v325c30 23 50 59 50 100z m-325-75c-41 0-75 34-75 75v25h150v-25c0-41-34-75-75-75z m-475 75v25h150v-25c0-41-34-75-75-75s-75 34-75 75z m350 225v-150h-143l38 150h105z m156 0l37-150h-143v150h106z m-306-200h150v-25c0-41-34-75-75-75s-75 34-75 75v25z m400 0h150v-25c0-41-34-75-75-75s-75 34-75 75v25z m135 50h-140l-38 150h103l75-150z m-644 150h102l-37-150h-140l75 150z m-41-347c8-2 16-3 25-3 41 0 77 20 100 50 23-30 59-50 100-50s77 20 100 50c18-24 45-41 75-47v-303h-400v303z m650-303h-200v303c31 6 57 23 75 47 23-30 59-50 100-50 9 0 17 1 25 3v-303z m-100 175c0-14-11-25-25-25s-25 11-25 25c0 14 11 25 25 25s25-11 25-25z m-475-25c-6 0-13 2-18 7-9 10-9 26 0 36l50 50c10 9 26 9 36 0 9-10 9-26 0-36l-50-50c-5-5-12-7-18-7z m50-100c-6 0-13 2-18 7-9 10-9 26 0 36l150 150c10 9 26 9 36 0 9-10 9-26 0-36l-150-150c-5-5-12-7-18-7z m150 0c-6 0-13 2-18 7-9 10-9 26 0 36l50 50c10 9 26 9 36 0s9-26 0-36l-50-50c-5-5-12-7-18-7z" horiz-adv-x="1000" />

<glyph glyph-name="cart" unicode="&#xe82e;" d="M400-150c-55 0-100 45-100 100s45 100 100 100 100-45 100-100-45-100-100-100z m0 150c-28 0-50-22-50-50s22-50 50-50 50 22 50 50-22 50-50 50z m350-150c-55 0-100 45-100 100s45 100 100 100 100-45 100-100-45-100-100-100z m0 150c-28 0-50-22-50-50s22-50 50-50 50 22 50 50-22 50-50 50z m127 627c-13 15-31 23-52 23h-612l-5 30c-7 39-43 70-83 70h-50c-14 0-25-11-25-25s11-25 25-25h50c15 0 31-13 34-28l83-502c7-39 43-70 83-70h500c14 0 25 11 25 25s-11 25-25 25h-500c-15 0-31 13-34 28l-12 74 498 44c39 3 75 36 81 74l33 202c4 20-1 40-14 55z m-35-47l-33-202c-3-15-20-31-36-32l-502-44-50 298h604c6 0 11-2 14-6 3-3 4-8 3-14z" horiz-adv-x="1000" />

<glyph glyph-name="tag" unicode="&#xe82f;" d="M375-104c-20 0-39 8-53 22l-254 254c-14 14-22 33-22 53s8 39 22 53l429 429c24 25 69 43 103 43h225c41 0 75-34 75-75v-225c0-34-18-79-43-103l-429-429c-14-15-33-22-53-22z m225 804c-21 0-53-13-68-28l-429-429c-5-5-7-11-7-18s2-13 7-18l254-254c5-5 11-7 18-7s13 2 18 7l429 429c15 15 28 47 28 68v225c0 14-11 25-25 25h-225z m125-200c-41 0-75 34-75 75s34 75 75 75 75-34 75-75-34-75-75-75z m0 100c-14 0-25-11-25-25s11-25 25-25 25 11 25 25-11 25-25 25z" horiz-adv-x="1000" />

<glyph glyph-name="tel-2" unicode="&#xe830;" d="M800-150c-89 0-183 25-280 75-90 45-178 111-256 189-78 78-143 166-189 256-49 97-74 191-74 280 0 57 53 113 76 134 33 31 85 66 123 66 19 0 41-12 69-39 22-19 46-46 70-77 14-18 86-113 86-159 0-37-42-63-87-91-17-10-35-21-48-32-14-11-16-17-17-18 48-118 193-263 311-311 1 1 7 3 18 17 11 13 22 31 32 48 28 45 54 87 91 87 46 0 141-72 159-86 31-24 58-48 77-70 27-28 39-50 39-69 0-38-35-90-66-123-21-23-77-77-134-77z m-600 950c-14 0-50-17-89-53-37-34-60-71-60-97 0-336 413-750 749-750 26 0 63 23 97 61 36 39 53 75 53 89-2 9-28 46-100 102-62 47-112 73-125 73-1 0-6-2-18-17-9-12-20-29-30-46-28-46-55-89-93-89-6 0-12 1-18 4-131 52-287 208-339 339-6 16-7 40 24 68 16 15 39 29 61 43 17 10 34 21 46 30 15 12 17 17 17 18 0 13-26 63-73 125-56 72-93 98-102 100z" horiz-adv-x="1000" />

<glyph glyph-name="tel" unicode="&#xe831;" d="M895 405c-52 0-147 19-176 48-18 18-22 41-26 59-4 23-7 29-16 34-46 19-110 30-178 30-67 0-131-11-176-30-9-4-12-11-16-33-3-18-7-41-26-59-16-16-50-28-76-34-34-9-69-14-98-14-34 0-56 7-69 20-19 19-32 46-34 73-2 23 2 57 34 88 51 51 120 91 204 118 78 26 166 39 256 39 90 0 179-13 258-39 85-28 154-68 206-120 52-52 39-122 0-161-12-13-35-19-67-19z m-396 221c75 0 145-12 197-35 36-15 42-46 46-69 3-14 5-26 12-33 13-13 86-34 141-34 24 0 31 4 32 5 16 16 35 54 0 90-91 90-251 144-429 144-177 0-336-53-425-142-14-15-21-31-19-49 1-15 8-31 19-42 1 0 9-5 34-5 55 0 127 21 139 33 7 7 9 19 12 33 4 23 10 55 46 70 51 22 120 34 195 34z m326-676h-650c-33 0-64 13-87 37-23 24-34 56-32 89 0 4 6 95 63 187 34 55 79 98 134 129 68 39 151 58 247 58s179-19 247-58c55-31 100-74 134-129 58-92 63-183 63-187 2-33-9-65-32-89s-53-37-87-37z m-325 450c-156 0-269-54-337-162-52-81-57-164-57-165-2-19 5-38 18-51s31-22 51-22h650c20 0 38 8 51 22 13 13 20 32 19 52-1 0-6 83-57 164-69 108-182 162-338 162z m0-350c-83 0-150 67-150 150s67 150 150 150 150-67 150-150-67-150-150-150z m0 250c-55 0-100-45-100-100s45-100 100-100c55 0 100 45 100 100s-45 100-100 100z" horiz-adv-x="1000" />

<glyph glyph-name="pin" unicode="&#xe832;" d="M900 510l-265 265c-9 9-22 15-35 15s-26-6-35-15l-15-15c-14-14-25-39-25-60v-50c0-7-5-20-10-25l-140-140c-5-5-18-10-25-10h-50c-20 0-46-10-60-25l-15-15c-19-19-19-51 0-70l78-78-248-322c-7-10-7-24 2-33 5-5 12-7 18-7 5 0 11 2 15 5l322 248 78-78c9-9 22-15 35-15s26 6 35 15l15 15c15 14 25 40 25 60v50c0 7 5 20 10 25l140 140c5 5 18 10 25 10h50c21 0 46 11 60 25l15 15c9 9 15 22 15 35s-6 26-15 35z m-688-423l126 164 38-38-164-126z m638 373c-5-5-18-10-25-10h-50c-20 0-46-10-60-25l-140-140c-14-14-25-39-25-60v-50c0-7-5-20-10-25l-15-15c0 0 0 0 0 0v0l-265 265 15 15c5 5 18 10 25 10h50c21 0 46 11 60 25l140 140c15 14 25 40 25 60v50c0 7 5 20 10 25l15 15 265-265-15-15z" horiz-adv-x="1000" />

<glyph glyph-name="glyph-113" unicode="&#xe833;" d="M500-150c-8 0-15 3-20 10-2 3-70 90-139 219-41 76-73 150-97 221-29 89-44 173-44 250 0 165 135 300 300 300s300-135 300-300c0-77-15-161-44-250-23-71-56-145-96-221-69-129-137-216-140-219-5-7-12-10-20-10z m0 950c-138 0-250-112-250-250 0-163 73-333 135-448 45-84 90-150 115-185 25 35 71 102 116 186 61 114 134 285 134 447 0 138-112 250-250 250z m0-400c-83 0-150 67-150 150s67 150 150 150 150-67 150-150-67-150-150-150z m0 250c-55 0-100-45-100-100s45-100 100-100c55 0 100 45 100 100s-45 100-100 100z" horiz-adv-x="1000" />

<glyph glyph-name="map" unicode="&#xe834;" d="M938 796c-7 5-16 5-24 1l-289-144-289 144c-7 4-15 4-22 0l-300-150c-9-4-14-12-14-22v-750c0-9 5-17 12-21 4-3 8-4 13-4 4 0 8 1 11 3l289 144 289-144c7-4 15-4 22 0l300 150c9 4 14 13 14 22v750c0 9-4 17-12 21z m-638-755l-250-126v695l250 125v-694z m50 694l250-125v-695l-250 126v694z m550-694l-250-126v695l250 125v-694z" horiz-adv-x="1000" />

<glyph glyph-name="bluetooth" unicode="&#xe835;" d="M232-149v456l-198-199-24 24 211 210-221 221 23 23 209-209v472l271-271-236-236 228-228-263-263z m33 447v-367l184 183-184 184z m0 471v-383l192 192-192 191z" horiz-adv-x="503.9" />

<glyph glyph-name="calendar" unicode="&#xe836;" d="M925 750h-125v25c0 14-11 25-25 25s-25-11-25-25v-25h-500v25c0 14-11 25-25 25s-25-11-25-25v-25h-125c-41 0-75-34-75-75v-700c0-41 34-75 75-75h850c41 0 75 34 75 75v700c0 41-34 75-75 75z m-850-50h125v-75c0-14 11-25 25-25s25 11 25 25v75h500v-75c0-14 11-25 25-25s25 11 25 25v75h125c14 0 25-11 25-25v-125h-900v125c0 14 11 25 25 25z m850-750h-850c-14 0-25 11-25 25v525h900v-525c0-14-11-25-25-25z m-550 400h-50c-14 0-25 11-25 25s11 25 25 25h50c14 0 25-11 25-25s-11-25-25-25z m150 0h-50c-14 0-25 11-25 25s11 25 25 25h50c14 0 25-11 25-25s-11-25-25-25z m150 0h-50c-14 0-25 11-25 25s11 25 25 25h50c14 0 25-11 25-25s-11-25-25-25z m150 0h-50c-14 0-25 11-25 25s11 25 25 25h50c14 0 25-11 25-25s-11-25-25-25z m-600-100h-50c-14 0-25 11-25 25s11 25 25 25h50c14 0 25-11 25-25s-11-25-25-25z m150 0h-50c-14 0-25 11-25 25s11 25 25 25h50c14 0 25-11 25-25s-11-25-25-25z m150 0h-50c-14 0-25 11-25 25s11 25 25 25h50c14 0 25-11 25-25s-11-25-25-25z m150 0h-50c-14 0-25 11-25 25s11 25 25 25h50c14 0 25-11 25-25s-11-25-25-25z m150 0h-50c-14 0-25 11-25 25s11 25 25 25h50c14 0 25-11 25-25s-11-25-25-25z m-600-100h-50c-14 0-25 11-25 25s11 25 25 25h50c14 0 25-11 25-25s-11-25-25-25z m150 0h-50c-14 0-25 11-25 25s11 25 25 25h50c14 0 25-11 25-25s-11-25-25-25z m150 0h-50c-14 0-25 11-25 25s11 25 25 25h50c14 0 25-11 25-25s-11-25-25-25z m150 0h-50c-14 0-25 11-25 25s11 25 25 25h50c14 0 25-11 25-25s-11-25-25-25z m150 0h-50c-14 0-25 11-25 25s11 25 25 25h50c14 0 25-11 25-25s-11-25-25-25z m-600-100h-50c-14 0-25 11-25 25s11 25 25 25h50c14 0 25-11 25-25s-11-25-25-25z m150 0h-50c-14 0-25 11-25 25s11 25 25 25h50c14 0 25-11 25-25s-11-25-25-25z m150 0h-50c-14 0-25 11-25 25s11 25 25 25h50c14 0 25-11 25-25s-11-25-25-25z m150 0h-50c-14 0-25 11-25 25s11 25 25 25h50c14 0 25-11 25-25s-11-25-25-25z m150 0h-50c-14 0-25 11-25 25s11 25 25 25h50c14 0 25-11 25-25s-11-25-25-25z" horiz-adv-x="1000" />

<glyph glyph-name="keyboard" unicode="&#xe837;" d="M875 50h-800c-41 0-75 34-75 75v400c0 41 34 75 75 75h800c41 0 75-34 75-75v-400c0-41-34-75-75-75z m-800 500c-14 0-25-11-25-25v-400c0-14 11-25 25-25h800c14 0 25 11 25 25v400c0 14-11 25-25 25h-800z m100-100h-50c-14 0-25 11-25 25s11 25 25 25h50c14 0 25-11 25-25s-11-25-25-25z m650 0h-50c-14 0-25 11-25 25s11 25 25 25h50c14 0 25-11 25-25s-11-25-25-25z m-600-100h-100c-14 0-25 11-25 25s11 25 25 25h100c14 0 25-11 25-25s-11-25-25-25z m-50-200h-50c-14 0-25 11-25 25s11 25 25 25h50c14 0 25-11 25-25s-11-25-25-25z m400 0h-300c-14 0-25 11-25 25s11 25 25 25h300c14 0 25-11 25-25s-11-25-25-25z m150 0h-50c-14 0-25 11-25 25s11 25 25 25h50c14 0 25-11 25-25s-11-25-25-25z m100 100h-150c-14 0-25 11-25 25s11 25 25 25h125v75c0 14 11 25 25 25s25-11 25-25v-100c0-14-11-25-25-25z m-550 0h-150c-14 0-25 11-25 25s11 25 25 25h150c14 0 25-11 25-25s-11-25-25-25z m25 225c0-14-11-25-25-25s-25 11-25 25c0 14 11 25 25 25s25-11 25-25z m100 0c0-14-11-25-25-25s-25 11-25 25c0 14 11 25 25 25s25-11 25-25z m100 0c0-14-11-25-25-25s-25 11-25 25c0 14 11 25 25 25s25-11 25-25z m100 0c0-14-11-25-25-25s-25 11-25 25c0 14 11 25 25 25s25-11 25-25z m100 0c0-14-11-25-25-25s-25 11-25 25c0 14 11 25 25 25s25-11 25-25z m-350-100c0-14-11-25-25-25s-25 11-25 25c0 14 11 25 25 25s25-11 25-25z m100 0c0-14-11-25-25-25s-25 11-25 25c0 14 11 25 25 25s25-11 25-25z m100 0c0-14-11-25-25-25s-25 11-25 25c0 14 11 25 25 25s25-11 25-25z m100 0c0-14-11-25-25-25s-25 11-25 25c0 14 11 25 25 25s25-11 25-25z m100 0c0-14-11-25-25-25s-25 11-25 25c0 14 11 25 25 25s25-11 25-25z m-350-100c0-14-11-25-25-25s-25 11-25 25c0 14 11 25 25 25s25-11 25-25z m100 0c0-14-11-25-25-25s-25 11-25 25c0 14 11 25 25 25s25-11 25-25z m100 0c0-14-11-25-25-25s-25 11-25 25c0 14 11 25 25 25s25-11 25-25z" horiz-adv-x="1000" />

<glyph glyph-name="spell-check" unicode="&#xe838;" d="M225 150c-14 0-25-11-25-25v0c-21 16-47 25-75 25-69 0-125-56-125-125s56-125 125-125c28 0 54 9 75 25v0c0-14 11-25 25-25s25 11 25 25v200c0 14-11 25-25 25z m-100-200c-41 0-75 34-75 75s34 75 75 75 75-34 75-75-34-75-75-75z m300 200c-28 0-54-9-75-25v200c0 14-11 25-25 25s-25-11-25-25v-400c0-14 11-25 25-25s25 11 25 25v0c21-16 47-25 75-25 69 0 125 56 125 125s-56 125-125 125z m0-200c-41 0-75 34-75 75s34 75 75 75 75-34 75-75-34-75-75-75z m300-50c-69 0-125 56-125 125s56 125 125 125c22 0 44-6 63-17 12-7 16-22 9-34-7-12-23-16-34-9-12 7-25 10-38 10-41 0-75-34-75-75s34-75 75-75c13 0 26 3 38 10 11 7 27 3 34-9 7-12 3-27-9-34-19-11-41-17-63-17z m-150 425c-6 0-13 2-18 7l-150 150c-9 10-9 26 0 36 10 9 26 9 36 0l132-133 332 333c10 9 26 9 36 0 9-10 9-26 0-36l-350-350c-5-5-12-7-18-7z" horiz-adv-x="1000" />

<glyph glyph-name="screen" unicode="&#xe839;" d="M875 750h-800c-41 0-75-34-75-75v-500c0-41 34-75 75-75h375v-100h-175c-14 0-25-11-25-25s11-25 25-25h400c14 0 25 11 25 25s-11 25-25 25h-175v100h375c41 0 75 34 75 75v500c0 41-34 75-75 75z m25-575c0-14-11-25-25-25h-800c-14 0-25 11-25 25v500c0 14 11 25 25 25h800c14 0 25-11 25-25v-500z" horiz-adv-x="1000" />

<glyph glyph-name="phone" unicode="&#xe83a;" d="M525-50h-50c-14 0-25 11-25 25s11 25 25 25h50c14 0 25-11 25-25s-11-25-25-25z m200-100h-450c-41 0-75 34-75 75v850c0 41 34 75 75 75h450c41 0 75-34 75-75v-850c0-41-34-75-75-75z m-450 950c-14 0-25-11-25-25v-850c0-14 11-25 25-25h450c14 0 25 11 25 25v850c0 14-11 25-25 25h-450z m400-750h-350c-14 0-25 11-25 25v650c0 14 11 25 25 25h350c14 0 25-11 25-25v-650c0-14-11-25-25-25z m-325 50h300v600h-300v-600z" horiz-adv-x="1000" />

<glyph glyph-name="tablet" unicode="&#xe83b;" d="M825-150h-650c-41 0-75 34-75 75v850c0 41 34 75 75 75h650c41 0 75-34 75-75v-850c0-41-34-75-75-75z m-650 950c-14 0-25-11-25-25v-850c0-14 11-25 25-25h650c14 0 25 11 25 25v850c0 14-11 25-25 25h-650z m350-850h-50c-14 0-25 11-25 25s11 25 25 25h50c14 0 25-11 25-25s-11-25-25-25z m250 100h-550c-14 0-25 11-25 25v650c0 14 11 25 25 25h550c14 0 25-11 25-25v-650c0-14-11-25-25-25z m-525 50h500v600h-500v-600z" horiz-adv-x="1000" />

<glyph glyph-name="laptop" unicode="&#xe83c;" d="M175 150h650c41 0 75 34 75 75v400c0 41-34 75-75 75h-650c-41 0-75-34-75-75v-400c0-41 34-75 75-75z m-25 475c0 14 11 25 25 25h650c14 0 25-11 25-25v-400c0-14-11-25-25-25h-650c-14 0-25 11-25 25v400z m825-525h-950c-14 0-25-11-25-25v-50c0-41 34-75 75-75h850c41 0 75 34 75 75v50c0 14-11 25-25 25z m-50-100h-850c-14 0-25 11-25 25v25h900v-25c0-14-11-25-25-25z" horiz-adv-x="1000" />

<glyph glyph-name="laptop-phone" unicode="&#xe83d;" d="M575 150h-400c-41 0-75 34-75 75v400c0 41 34 75 75 75h650c41 0 75-34 75-75v-50c0-14-11-25-25-25s-25 11-25 25v50c0 14-11 25-25 25h-650c-14 0-25-11-25-25v-400c0-14 11-25 25-25h400c14 0 25-11 25-25s-11-25-25-25z m0-200h-500c-41 0-75 34-75 75v50c0 14 11 25 25 25h550c14 0 25-11 25-25s-11-25-25-25h-525v-25c0-14 11-25 25-25h500c14 0 25-11 25-25s-11-25-25-25z m350 0h-200c-41 0-75 34-75 75v400c0 41 34 75 75 75h200c41 0 75-34 75-75v-400c0-41-34-75-75-75z m-200 500c-14 0-25-11-25-25v-400c0-14 11-25 25-25h200c14 0 25 11 25 25v400c0 14-11 25-25 25h-200z m100-400c-7 0-13 3-18 7-4 5-7 11-7 18s3 13 7 18c5 4 11 7 18 7s13-3 18-7c4-5 7-11 7-18 0-7-3-13-7-18-5-4-11-7-18-7z" horiz-adv-x="1000" />

<glyph glyph-name="shutdown" unicode="&#xe83e;" d="M475 250c-14 0-25 11-25 25v450c0 14 11 25 25 25s25-11 25-25v-450c0-14-11-25-25-25z m0-350c-100 0-194 39-265 110-71 71-110 165-110 265 0 82 26 161 76 226 48 64 116 111 192 134 13 3 27-4 31-17s-4-27-17-31c-136-41-232-169-232-312 0-179 146-325 325-325s325 146 325 325c0 143-95 271-232 312-13 4-21 17-17 31 4 13 18 20 31 17 76-23 144-70 192-134 50-65 76-144 76-226 0-100-39-194-110-265-71-71-165-110-265-110z" horiz-adv-x="1000" />

<glyph glyph-name="msg" unicode="&#xe83f;" d="M25-100c-11 0-21 7-24 18s2 23 11 28c85 51 120 125 132 159-92 71-144 168-144 270 0 52 13 101 38 148 25 45 59 85 104 119 89 70 207 108 333 108s244-38 334-108c44-34 78-74 103-119 25-47 38-96 38-148 0-51-13-101-38-148-25-45-59-85-103-119-90-70-208-108-334-108-52 0-102 7-151 19-21-14-61-39-109-63-75-37-138-56-190-56z m450 800c-234 0-425-146-425-325 0-91 50-178 138-240 8-6 12-16 10-26-6-22-26-82-79-140 65 23 135 62 187 98 6 4 13 6 21 3 47-13 97-20 148-20 234 0 425 146 425 325s-191 325-425 325z" horiz-adv-x="1000" />

<glyph glyph-name="heart-pulse" unicode="&#xe840;" d="M475-100c-4 0-8 1-12 3-6 3-144 81-269 204-9 10-9 26 0 36s26 10 36 0c99-98 209-168 245-189 36 21 147 91 245 189 10 10 26 9 36 0 10-10 9-26 0-36-125-123-263-201-269-204-4-2-8-3-12-3z m-411 400c-9 0-18 5-23 14-27 59-41 117-41 174 0 144 118 262 263 262 49 0 101-18 146-52 27-19 49-43 66-68 17 25 39 49 66 68 46 34 98 52 147 52 144 0 262-118 262-262 0-57-14-115-41-174-6-12-21-17-34-12-12 6-17 21-11 34 24 51 36 102 36 152 0 117-95 212-212 212-86 0-168-70-189-133-4-10-13-17-24-17s-20 7-24 17c-21 63-103 133-188 133-118 0-213-95-213-212 0-50 12-101 37-152 5-13 0-28-12-34-4-1-7-2-11-2z m462-200c0 0-1 0-1 0-10 0-28 5-38 38l-60 217-41-164c-8-32-26-39-36-40-10-1-30 1-45 31l-30 61c-1 2-3 4-4 5 0 0 0 0 0 0-19-27-60-48-96-48h-50c-14 0-25 11-25 25s11 25 25 25h50c21 0 46 14 54 26 12 16 28 25 45 24 19-2 35-14 46-35l22-45 47 191c8 32 24 39 36 39 12 0 29-6 38-38l64-229 59 180c10 32 29 37 39 38 10 0 30-4 42-34l37-86c6-16 29-31 46-31h75c14 0 25-11 25-25s-11-25-25-25h-75c-37 0-78 27-92 61l-30 71-64-195c-10-32-28-37-38-37z" horiz-adv-x="1000" />

<glyph glyph-name="construction" unicode="&#xe841;" d="M1000 600v75c0 14-11 25-25 25h-175c0 0 0 0 0 0h-250c0 0 0 0 0 0h-250c0 0 0 0 0 0h-275c-14 0-25-11-25-25v-300c0-14 11-25 25-25h75v-300h-25c-14 0-25-11-25-25s11-25 25-25h200c14 0 25 11 25 25s-11 25-25 25h-25v150h500v-150h-25c-14 0-25-11-25-25s11-25 25-25h200c14 0 25 11 25 25s-11 25-25 25h-25v300h75c14 0 25 11 25 25v225c0 0 0 0 0 0z m-50 10l-210-210h-180l250 250h140v-40z m-640-210l250 250h180l-250-250h-180z m-250 0l250 250h180l-250-250h-180z m180 250l-190-190v190h190z m-90-600v300h50v-300h-50z m100 200v100h500v-100h-500z m600-200h-50v300h50v-300z m-40 350l140 140v-140h-140z" horiz-adv-x="1000" />

<glyph glyph-name="pie" unicode="&#xe842;" d="M425-150c-113 0-220 44-300 124s-125 188-125 301c0 114 44 220 125 301s187 124 300 124c14 0 25-11 25-25v-375h375c14 0 25-11 25-25 0-113-44-220-124-301s-187-124-301-124z m-25 799c-195-13-350-176-350-374 0-207 168-375 375-375 198 0 361 155 374 350h-374c-14 0-25 11-25 25v374z m525-299h-400c-14 0-25 11-25 25v400c0 14 11 25 25 25 114 0 220-44 301-124s124-187 124-301c0-14-11-25-25-25z m-375 50h349c-12 187-162 337-349 349v-349z" horiz-adv-x="1000" />

<glyph glyph-name="chart" unicode="&#xe843;" d="M875-150h-800c-41 0-75 34-75 75v800c0 41 34 75 75 75h800c41 0 75-34 75-75v-800c0-41-34-75-75-75z m-800 900c-14 0-25-11-25-25v-800c0-14 11-25 25-25h800c14 0 25 11 25 25v800c0 14-11 25-25 25h-800z m250-750h-100c-14 0-25 11-25 25v450c0 14 11 25 25 25h100c14 0 25-11 25-25v-450c0-14-11-25-25-25z m-75 50h50v400h-50v-400z m275-50h-100c-14 0-25 11-25 25v600c0 14 11 25 25 25h100c14 0 25-11 25-25v-600c0-14-11-25-25-25z m-75 50h50v550h-50v-550z m275-50h-100c-14 0-25 11-25 25v250c0 14 11 25 25 25h100c14 0 25-11 25-25v-250c0-14-11-25-25-25z m-75 50h50v200h-50v-200z" horiz-adv-x="1000" />

<glyph glyph-name="gift" unicode="&#xe844;" d="M925 600h-150c16 21 25 47 25 75 0 69-56 125-125 125-69 0-128-55-156-88-18-20-32-41-44-62-11 21-26 42-44 62-28 33-86 88-156 88-69 0-125-56-125-125 0-28 9-54 25-75h-150c-14 0-25-11-25-25v-150c0-14 11-25 25-25h25v-475c0-41 34-75 75-75h700c41 0 75 34 75 75v475h25c14 0 25 11 25 25v150c0 14-11 25-25 25z m-369 79c40 45 83 71 119 71 41 0 75-34 75-75s-34-75-75-75h-169c9 22 26 52 50 79z m-6-779h-150v650h150v-650z m-350 775c0 41 34 75 75 75 36 0 80-26 119-71 24-27 41-57 50-79h-169c-41 0-75 34-75 75z m-150-125h300v-100h-300v100z m50-625v475h250v-500h-225c-14 0-25 11-25 25z m750 0c0-14-11-25-25-25h-225v500h250v-475z m50 525h-300v100h300v-100z" horiz-adv-x="1000" />

<glyph glyph-name="diamond" unicode="&#xe845;" d="M945 490l-150 200c-4 5-9 9-16 10l-300 50c-3 0-5 0-8 0l-300-50c-6-1-12-5-16-10l-150-200c-7-10-7-23 1-32l450-500c5-5 12-8 19-8s14 3 19 8l450 500c8 9 8 22 1 32z m-306 10l-164-452-164 452h328z m-304 50l140 140 140-140h-280z m213 138l185-31-62-93-123 124z m-269-124l-62 93 185 31-123-124z m-45-22l-150-30 90 120 60-90z m25-46l149-409-335 372 186 37z m432 0l186-37-335-372 149 409z m26 46l59 90 90-120-149 30z" horiz-adv-x="1000" />

<glyph glyph-name="share" unicode="&#xe846;" d="M769 335c-64 0-114-51-114-114s50-114 114-114 114 50 114 114-51 114-114 114z m-599 370c-63 0-114-50-114-114s51-114 114-114 114 51 114 114-50 114-114 114z m599 371c-64 0-114-51-114-114 0-64 50-114 114-114s114 50 114 114-51 114-114 114z m0 57c94 0 171-77 171-172 0-94-77-171-171-171-51 0-97 23-129 59l-319-177c13-24 21-52 21-81 0-29-8-57-21-81l319-177c32 36 78 59 129 59 94 0 171-77 171-171 0-94-77-171-171-171s-171 77-171 171c0 23 4 44 12 64l-324 180c-31-28-71-44-115-44-94 0-171 77-171 170s77 171 171 171c44 0 84-17 114-44l325 180c-8 20-12 41-12 64 0 94 77 171 171 171z" horiz-adv-x="989" />

<glyph glyph-name="dinner" unicode="&#xe847;" d="M400 825c0 14-11 25-25 25s-25-11-25-25c0-65 13-120 23-164 10-42 17-76 6-90-9-12-36-19-79-20 0 8 0 16 0 24v200c0 14-11 25-25 25s-25-11-25-25v-200c0-8 0-16 0-24-43 1-70 8-79 20-11 14-3 48 6 91 10 43 23 98 23 163 0 14-11 25-25 25s-25-11-25-25c0-59-12-111-21-152-13-56-23-100 3-133 19-25 55-37 117-39-6-140-26-260-43-359-22-132-37-220 1-264 15-19 38-28 68-28 30 0 53 9 69 28 37 44 22 132 0 264-17 99-37 219-42 359 61 2 97 14 116 39 27 33 16 77 4 133-10 41-22 92-22 152z m-95-915c-3-4-10-10-30-10-20 0-27 6-30 10-23 27-8 118 10 223 7 39 14 80 20 124 7-44 13-85 20-123 18-106 33-197 10-224z m489 232c-19 117-44 262-44 433v250c0 11-8 21-19 24-10 3-22-2-28-12-101-176-150-446-153-457-1-8 1-15 6-21 5-6 12-9 19-9h112c-9-77-21-147-31-208-22-132-37-220 1-264 15-19 38-28 68-28 30 0 53 9 69 28 37 44 22 132 0 264z m-188 258c12 59 44 194 94 316v-141c0-62-3-120-8-175h-86z m149-490c-3-4-10-10-30-10-20 0-27 6-30 10-23 27-8 118 10 223 7 39 14 80 20 124 7-44 13-85 20-123 18-106 33-197 10-224z" horiz-adv-x="1000" />

<glyph glyph-name="coffee" unicode="&#xe848;" d="M500 100c-83 0-150 67-150 150s67 150 150 150 150-67 150-150-67-150-150-150z m0 250c-55 0-100-45-100-100s45-100 100-100c55 0 100 45 100 100s-45 100-100 100z m295 397l-9 36c-9 37-47 67-86 67h-400c-39 0-77-30-86-67l-9-36c-32-9-55-38-55-72v-50c0-33 22-61 51-71l46-631c2-40 38-73 78-73h350c40 0 76 33 79 73l45 631c29 10 51 38 51 71v50c0 34-23 63-55 72z m-495 53h400c16 0 34-14 38-30l5-20h-486l5 20c4 16 22 30 38 30z m445-300h-490l-3 50h496l-3-50z m-33-450h-424l-29 400h482l-29-400z m-37-150h-350c-14 0-28 12-29 27l-5 73h418l-5-73c-1-15-14-27-29-27z m125 725c0-14-11-25-25-25h-550c-14 0-25 11-25 25v50c0 14 11 25 25 25 0 0 0 0 0 0 0 0 0 0 0 0h550c14 0 25-11 25-25v-50z" horiz-adv-x="1000" />

<glyph glyph-name="leaf" unicode="&#xe849;" d="M994 841c-5 6-12 9-19 9l-25 0c-252 0-451 0-598-35-79-19-140-47-186-87-50-43-85-99-105-171-13-48-20-135 7-222 10-32 25-62 45-90-60-95-113-221-113-370 0-14 11-25 25-25s25 11 25 25c0 230 136 401 218 482 58 59 124 108 191 143 61 32 121 50 166 50 14 0 25 11 25 25s-11 25-25 25c-54 0-120-19-190-56-71-37-141-89-203-151-26-26-57-61-88-104-12 19-22 39-28 61-25 81-16 160-7 193 72 257 343 257 836 257-59-314-168-518-326-605-146-81-291-37-346-14-12 5-24 11-35 18-12 7-27 3-34-9-7-12-4-27 8-34 14-9 28-16 42-21 31-13 81-29 143-35 14-1 27-1 41-1 73 0 142 17 206 52 80 45 150 117 207 215 66 116 116 269 149 455 1 7-1 15-6 20z" horiz-adv-x="1000" />

<glyph glyph-name="pet" unicode="&#xe84a;" d="M150 250c-56 0-100 66-100 151s44 150 100 150 100-66 100-150-44-151-100-151z m0 251c-24 0-50-43-50-100s26-101 50-101 50 43 50 101-26 100-50 100z m200-51c-56 0-100 66-100 150s44 150 100 150 100-66 100-150-44-150-100-150z m0 250c-24 0-50-43-50-100s26-100 50-100 50 43 50 100-26 100-50 100z m250-250c-56 0-100 66-100 150s44 150 100 150 100-66 100-150-44-150-100-150z m0 250c-24 0-50-43-50-100s26-100 50-100 50 43 50 100-26 100-50 100z m200-450c-56 0-100 66-100 151s44 150 100 150 100-66 100-150-44-151-100-151z m0 251c-24 0-50-43-50-100s26-101 50-101 50 43 50 101-26 100-50 100z m-150-551c-43 0-73 15-99 28-24 12-44 22-76 22-31 0-52-10-76-22-26-13-56-28-99-28-28 0-54 15-72 41-31 47-32 117-1 193 55 137 145 216 248 216s193-79 248-216c31-76 30-146-1-193-18-26-44-41-72-41z m-175 100c44 0 73-15 99-28 24-12 44-22 76-22 11 0 22 7 30 20 22 31 21 86-3 146-47 117-121 184-202 184-81 0-155-67-202-184-24-60-25-115-3-146 8-13 19-20 30-20 32 0 52 10 76 22 26 13 56 28 99 28z" horiz-adv-x="1000" />

<glyph glyph-name="rocket" unicode="&#xe84b;" d="M675 400c-69 0-125 56-125 125s56 125 125 125 125-56 125-125-56-125-125-125z m0 200c-41 0-75-34-75-75s34-75 75-75 75 34 75 75-34 75-75 75z m-650-750c-6 0-13 3-18 7-6 7-9 17-5 26 76 212 157 319 240 319 27 0 53-11 76-34 36-37 37-73 32-97-17-75-123-149-316-220-3-1-6-1-9-1z m217 302c-25 0-54-21-84-62-30-41-60-98-90-172 67 27 121 54 160 81 54 37 69 66 73 83 4 17-2 34-19 50-13 14-26 20-40 20z m733 698c-130 0-245-22-344-65-81-36-150-86-206-150-10-11-20-23-29-35-43-3-87-20-131-51-37-27-75-63-111-108-62-76-100-152-101-155-6-11-3-24 7-31 5-3 10-5 15-5 6 0 13 3 18 7 0 1 24 24 65 47 33 19 85 41 148 45 15-40 61-89 83-110 21-22 70-68 110-83-4-63-26-115-45-148-23-41-46-65-47-65-8-9-9-23-2-33 5-6 12-10 20-10 4 0 8 1 11 3 3 1 79 39 155 101 45 36 81 74 108 111 31 44 48 88 51 131 12 9 24 19 35 29 64 56 114 125 150 206 43 99 65 214 65 344v25h-25z m-820-490c48 69 121 155 203 182-32-57-49-110-55-143-58-3-108-20-148-39z m355-354c19 39 36 89 39 147 33 6 86 23 142 55-27-82-112-155-181-202z m242 307c-104-92-211-113-227-113 0 0-10 0-38 20-19 13-42 33-63 54-21 21-41 44-54 63-20 28-20 38-20 38 0 16 21 123 113 227 109 125 277 193 487 198-5-210-73-378-198-487z" horiz-adv-x="1000" />

<glyph glyph-name="briefcase" unicode="&#xe84c;" d="M925 600h-225v75c0 41-34 75-75 75h-250c-41 0-75-34-75-75v-75h-225c-41 0-75-34-75-75v-550c0-41 34-75 75-75h850c41 0 75 34 75 75v550c0 41-34 75-75 75z m-575 75c0 14 11 25 25 25h250c14 0 25-11 25-25v-75h-300v75z m-275-125h850c14 0 25-11 25-25v-375h-100v25c0 14-11 25-25 25h-100c-14 0-25-11-25-25v-25h-400v25c0 14-11 25-25 25h-100c-14 0-25-11-25-25v-25h-100v375c0 14 11 25 25 25z m725-400v-50h-50v50h50z m-550 0v-50h-50v50h50z m675-200h-850c-14 0-25 11-25 25v125h100v-25c0-14 11-25 25-25h100c14 0 25 11 25 25v25h400v-25c0-14 11-25 25-25h100c14 0 25 11 25 25v25h100v-125c0-14-11-25-25-25z" horiz-adv-x="1000" />

<glyph glyph-name="bus" unicode="&#xe84d;" d="M275 50c-41 0-75 34-75 75s34 75 75 75 75-34 75-75-34-75-75-75z m0 100c-14 0-25-11-25-25s11-25 25-25 25 11 25 25-11 25-25 25z m450-100c-41 0-75 34-75 75s34 75 75 75 75-34 75-75-34-75-75-75z m0 100c-14 0-25-11-25-25s11-25 25-25 25 11 25 25-11 25-25 25z m-50 450h-350c-14 0-25 11-25 25s11 25 25 25h350c14 0 25-11 25-25s-11-25-25-25z m100-50h-550c-14 0-25-11-25-25v-250c0-14 11-25 25-25h250c0 0 0 0 0 0 0 0 0 0 0 0h250c0 0 0 0 0 0 0 0 0 0 0 0h50c14 0 25 11 25 25v250c0 14-11 25-25 25z m-525-50h500v-200h-17l-144 96c-12 8-27 4-35-7-7-12-4-27 7-35l81-54h-159l-144 96c-12 8-27 4-35-7-7-12-4-27 7-35l81-54h-142v200z m531 261c-68 26-163 39-281 39s-213-13-281-39c-98-38-119-95-119-136v-550c0-60 43-111 100-123v-52c0-28 22-50 50-50h50c28 0 50 22 50 50v50h300v-50c0-28 22-50 50-50h50c28 0 50 22 50 50v52c57 12 100 63 100 123v550c0 41-21 98-119 136z m-481-861h-50v50h50v-50z m400 0v50h50v-50h-50z m150 175c0-41-34-75-75-75h-550c-41 0-75 34-75 75v550c0 37 29 67 87 89 62 24 153 36 263 36s201-12 263-36c58-22 87-52 87-89v-550z" horiz-adv-x="1000" />

<glyph glyph-name="car" unicode="&#xe84e;" d="M275 50c-41 0-75 34-75 75s34 75 75 75 75-34 75-75-34-75-75-75z m0 100c-14 0-25-11-25-25s11-25 25-25 25 11 25 25-11 25-25 25z m450-100c-41 0-75 34-75 75s34 75 75 75 75-34 75-75-34-75-75-75z m0 100c-14 0-25-11-25-25s11-25 25-25 25 11 25 25-11 25-25 25z m123 105c-7 39-28 160-51 206-15 31-54 54-116 70-50 12-114 19-181 19s-131-7-181-19c-62-16-101-39-116-70-23-46-44-167-51-206-35-24-52-59-52-105v-125c0-33 21-60 50-71v-54c0-28 22-50 50-50h50c28 0 50 22 50 50v50h400v-50c0-28 22-50 50-50h50c28 0 50 22 50 50v54c29 11 50 38 50 71v125c0 46-17 81-52 105z m-601 184c15 30 109 61 253 61s238-31 253-61c14-29 30-105 40-159-5 1-10 3-15 4-14 3-28 5-43 8l-145 103c-12 8-27 6-35-5-8-12-6-27 5-35l79-56c-43 1-89 1-139 1-6 0-12 0-17 0l-144 96c-12 8-27 4-35-7s-4-27 7-35l82-55c-67-1-125-4-171-15-5-2-10-3-15-4 10 54 26 130 40 159z m3-539h-50v50h50v-50z m500 0v50h50v-50h-50z m100 125c0-14-11-25-25-25h-650c-14 0-25 11-25 25v125c0 46 24 71 84 85 63 15 157 15 266 15s203 0 266-15c60-14 84-39 84-85v-125z" horiz-adv-x="1000" />

<glyph glyph-name="train" unicode="&#xe84f;" d="M725 100h-500c-69 0-125 56-125 125v500c0 69 56 125 125 125h500c69 0 125-56 125-125v-500c0-69-56-125-125-125z m-500 700c-41 0-75-34-75-75v-500c0-41 34-75 75-75h500c41 0 75 34 75 75v500c0 41-34 75-75 75h-500z m722-914l-100 200c-6 13-21 18-33 11-12-6-17-21-11-33l7-14h-669l6 14c7 12 2 27-11 33-12 7-27 2-33-11l-100-200c-7-12-1-27 11-33 3-2 7-3 11-3 9 0 18 5 22 14l19 36h819l18-36c4-9 13-14 22-14 4 0 8 1 11 3 13 6 18 21 11 33z m-856 64l25 50h719l25-50h-769z m184 250c-41 0-75 34-75 75s34 75 75 75 75-34 75-75-34-75-75-75z m0 100c-14 0-25-11-25-25s11-25 25-25 25 11 25 25-11 25-25 25z m400-100c-41 0-75 34-75 75s34 75 75 75 75-34 75-75-34-75-75-75z m0 100c-14 0-25-11-25-25s11-25 25-25 25 11 25 25-11 25-25 25z m-50 400h-300c-14 0-25 11-25 25s11 25 25 25h300c14 0 25-11 25-25s-11-25-25-25z m100-50h-500c-14 0-25-11-25-25v-200c0-14 11-25 25-25h500c14 0 25 11 25 25v200c0 14-11 25-25 25z m-475-50h200v-150h-200v150z m450-150h-200v150h200v-150z" horiz-adv-x="1000" />

<glyph glyph-name="bike" unicode="&#xe850;" d="M275 400c-41 0-75 34-75 75s34 75 75 75 75-34 75-75-34-75-75-75z m0 100c-14 0-25-11-25-25s11-25 25-25 25 11 25 25-11 25-25 25z m200-500c-14 0-25 11-25 25v150c0 39 29 77 66 88l75 21-163 109-85-86c-5-4-11-7-18-7h-100c-14 0-25 11-25 25s11 25 25 25h90l92 93c9 8 22 9 32 3l183-122c28-19 28-40 26-49s-7-29-39-38l-79-22c-16-5-30-24-30-40v-150c0-14-11-25-25-25z m275-150c-110 0-200 90-200 200s90 200 200 200 200-90 200-200-90-200-200-200z m0 350c-83 0-150-67-150-150s67-150 150-150 150 67 150 150-67 150-150 150z m-550-350c-110 0-200 90-200 200s90 200 200 200 200-90 200-200-90-200-200-200z m0 350c-83 0-150-67-150-150s67-150 150-150 150 67 150 150-67 150-150 150z" horiz-adv-x="1000" />

<glyph glyph-name="weelchair" unicode="&#xe851;" d="M893 193c-10 9-26 9-36 0l-32-33-137 133c0 0 0 0 0 0 0 1-1 1-1 1 0 0-1 1-1 1 0 0 0 0-1 1 0 0-1 0-1 0 0 0 0 1-1 1 0 0-1 0-1 0 0 1-1 1-1 1 0 0-1 0-1 0-1 1-1 1-1 1-1 0-1 0-1 0-1 0-1 0-2 0 0 1 0 1-1 1 0 0-1 0-1 0-1 0-1 0-1 0-1 0-1 0-2 0 0 0 0 0-1 0 0 0-1 0-1 0 0 0-1 0-1 0 0 0-1 0-1 0-1 0-1 0-2-1 0 0 0 0 0 0l-197-47c-6-2-10-1-13 1-3 3-5 7-5 13v84h175c14 0 25 11 25 25s-11 25-25 25h-175v153c8-2 16-3 25-3 69 0 125 56 125 125s-56 125-125 125-125-56-125-125c0-41 20-77 50-100v-309c0-21 9-40 24-52 11-8 24-13 39-13 5 0 11 1 17 2l183 45 145-141c4-5 11-7 17-7 6 0 13 2 18 7l50 50c9 10 9 26 0 36z m-418 557c41 0 75-34 75-75s-34-75-75-75c-41 0-75 34-75 75s34 75 75 75z m-100-900c-179 0-325 146-325 325 0 77 28 152 78 211 49 58 118 97 193 110 14 2 26-7 29-21 2-14-7-26-21-29-133-22-229-136-229-271 0-152 123-275 275-275 135 0 249 96 271 229 3 14 15 23 29 21 14-3 23-15 21-29-13-75-52-144-110-193-59-50-134-78-211-78z" horiz-adv-x="1000" />

<glyph glyph-name="select" unicode="&#xe852;" d="M275 100h-200c-41 0-75 34-75 75v600c0 41 34 75 75 75h700c41 0 75-34 75-75v-350c0-14-11-25-25-25s-25 11-25 25v350c0 14-11 25-25 25h-700c-14 0-25-11-25-25v-600c0-14 11-25 25-25h200c14 0 25-11 25-25s-11-25-25-25z m375-250c-10 0-19 6-23 16l-85 212-148-170c-7-7-18-10-28-6-9 3-16 13-16 23v750c0 10 6 19 15 23 9 4 20 2 27-4l550-500c8-7 10-18 6-28s-13-16-23-16h-213l86-216c5-13-1-27-14-32l-125-50c-3-1-6-2-9-2z m-100 300c1 0 3 0 4 0 9-2 16-8 19-16l91-227 79 32-91 227c-3 7-2 16 2 23s13 11 21 11h185l-460 419v-628l131 151c5 5 12 8 19 8z" horiz-adv-x="1000" />

<glyph glyph-name="glob" unicode="&#xe853;" d="M854 704c-95 94-220 146-354 146s-259-52-354-146c-94-95-146-220-146-354s52-259 146-354c95-94 220-146 354-146s259 52 354 146c94 95 146 220 146 354s-52 259-146 354z m66-192c-10 18-34 26-66 37-35 11-47 47-61 88-12 35-25 72-55 95 82-52 147-129 182-220z m-140-171c3-34 7-69-35-117-11-12-18-30-25-49-16-43-32-85-97-85-2 2-7 10-12 37-4 24-7 55-9 88-4 50-9 108-21 155-16 61-43 97-82 110-17 6-35 9-54 9-14 0-26-2-37-3-9-1-17-2-24-2 0 0 0 0 0 0-12 0-25 0-41 37-24 54-6 140 62 186 38 25 64 35 87 35 19 0 39-6 68-21 33-18 60-21 79-21 7 0 14 1 21 1 5 1 11 1 16 1 11 0 20-2 30-9 19-13 29-42 40-73 16-46 34-99 92-119 7-2 21-7 30-11-8-8-22-20-35-32-9-8-18-17-29-26-31-29-28-62-24-91z m-730 13c5-1 11-2 17-3 28-6 42-12 47-15-2-5-8-13-11-18-13-17-28-39-22-63 4-16 0-36-5-55-17 47-26 98-26 150 0 1 0 3 0 4z m450-454c-171 0-320 96-396 237 13 25 37 81 26 129 0 5 9 16 14 23 13 20 30 44 18 69-9 18-33 30-79 40-10 3-21 5-30 6 27 223 217 396 447 396 79 0 153-20 218-56-16 7-31 8-42 8-7 0-13 0-19-1-6 0-12-1-18-1-14 0-32 2-56 15-36 19-63 27-91 27-33 0-68-13-114-44-40-26-71-67-86-114-14-46-12-93 5-133 20-46 47-67 87-67 0 0 0 0 0 0 10 0 19 1 30 2 10 2 20 3 31 3 14 0 26-2 38-6 22-7 38-32 49-75 12-44 16-99 20-147 3-41 6-79 13-108 4-17 9-31 16-40 10-15 24-23 40-23 45 0 80 14 105 42 22 24 32 52 41 76 5 13 10 27 16 33 56 64 51 117 46 155-3 28-3 38 8 49 11 9 21 18 29 26 18 16 31 27 41 37 6 7 21 24 17 44 0 0 0 0 0 0 17-47 26-99 26-152 0-248-202-450-450-450z" horiz-adv-x="1000" />

<glyph glyph-name="smile" unicode="&#xe854;" d="M475-150c-127 0-246 49-336 139s-139 209-139 336c0 127 49 246 139 336s209 139 336 139c127 0 246-49 336-139s139-209 139-336-49-246-139-336c-90-90-209-139-336-139z m0 900c-234 0-425-191-425-425s191-425 425-425 425 191 425 425-191 425-425 425z m-150-300c-41 0-75 34-75 75s34 75 75 75 75-34 75-75-34-75-75-75z m0 100c-14 0-25-11-25-25s11-25 25-25 25 11 25 25-11 25-25 25z m300-100c-41 0-75 34-75 75s34 75 75 75 75-34 75-75-34-75-75-75z m0 100c-14 0-25-11-25-25s11-25 25-25 25 11 25 25-11 25-25 25z m-150-550c-179 0-325 146-325 325 0 14 11 25 25 25s25-11 25-25c0-152 123-275 275-275s275 123 275 275c0 14 11 25 25 25s25-11 25-25c0-179-146-325-325-325z" horiz-adv-x="1000" />

<glyph glyph-name="sad" unicode="&#xe855;" d="M475-150c-127 0-246 49-336 139s-139 209-139 336c0 127 49 246 139 336s209 139 336 139c127 0 246-49 336-139s139-209 139-336-49-246-139-336c-90-90-209-139-336-139z m0 900c-234 0-425-191-425-425s191-425 425-425 425 191 425 425-191 425-425 425z m-150-300c-41 0-75 34-75 75s34 75 75 75 75-34 75-75-34-75-75-75z m0 100c-14 0-25-11-25-25s11-25 25-25 25 11 25 25-11 25-25 25z m300-100c-41 0-75 34-75 75s34 75 75 75 75-34 75-75-34-75-75-75z m0 100c-14 0-25-11-25-25s11-25 25-25 25 11 25 25-11 25-25 25z m-350-450c-5 0-10 2-15 5-11 8-13 24-5 35 25 33 58 61 95 80 39 20 81 30 125 30s86-10 125-30c37-19 70-47 95-80 8-11 6-27-5-35-11-8-27-6-35 5-43 57-109 90-180 90s-137-33-180-90c-5-7-12-10-20-10z" horiz-adv-x="1000" />

<glyph glyph-name="neutral" unicode="&#xe856;" d="M475-150c-127 0-246 49-336 139s-139 209-139 336c0 127 49 246 139 336s209 139 336 139c127 0 246-49 336-139s139-209 139-336-49-246-139-336c-90-90-209-139-336-139z m0 900c-234 0-425-191-425-425s191-425 425-425 425 191 425 425-191 425-425 425z m200-550h-400c-14 0-25 11-25 25s11 25 25 25h400c14 0 25-11 25-25s-11-25-25-25z m-50 250c-41 0-75 34-75 75s34 75 75 75 75-34 75-75-34-75-75-75z m0 100c-14 0-25-11-25-25s11-25 25-25 25 11 25 25-11 25-25 25z m-300-100c-41 0-75 34-75 75s34 75 75 75 75-34 75-75-34-75-75-75z m0 100c-14 0-25-11-25-25s11-25 25-25 25 11 25 25-11 25-25 25z" horiz-adv-x="1000" />

<glyph glyph-name="check-1" unicode="&#xe857;" d="M0 339q0-35 24-60l246-239q24-25 60-25 36 0 60 25l505 495q25 24 25 59t-25 58q-25 25-60 25t-60-25l-445-435-185 181q-25 24-60 24t-61-24q-24-24-24-59z" horiz-adv-x="920.4" />

<glyph glyph-name="bell-1" unicode="&#xe858;" d="M840 95c-57 43-90 109-90 180v150c0 126-85 232-200 265l0 35c0 41-34 75-75 75-41 0-75-34-75-75v-35c-115-33-200-139-200-265v-150c0-71-33-137-90-180-9-6-12-18-9-28 4-10 13-17 24-17h228c-2-8-3-17-3-25 0-69 56-125 125-125s125 56 125 125c0 8-1 17-2 25h227c11 0 20 7 24 17s0 22-9 28z m-390 630c0 14 11 25 25 25s25-11 25-25v-26c-8 1-17 1-25 1s-17 0-25-1v26z m100-700c0-41-34-75-75-75s-75 34-75 75c0 9 2 17 4 25h142c3-8 4-16 4-25z m-363 75c13 15 24 32 33 50 20 39 30 81 30 125v150c0 124 101 225 225 225s225-101 225-225v-150c0-44 10-86 30-125 9-18 20-35 33-50h-576z" horiz-adv-x="1000" />

<glyph glyph-name="bullhorn" unicode="&#xe859;" d="M969 695c-28 87-67 105-94 105-1 0-1 0-2 0-27-1-76-15-150-37-154-45-387-113-623-113-57 0-100-75-100-175s43-175 100-175c18 0 37 0 55-1l84-332c9-37 47-67 86-67h66c21 0 40 9 50 25 10 15 12 36 3 56l-129 302c157-23 301-65 408-96 74-22 123-36 150-37 1 0 1 0 2 0 27 0 66 18 94 105 20 59 31 137 31 220 0 83-11 161-31 220z m-169-220c0 26 1 51 3 75 26-3 47-36 47-75s-21-72-47-75c-2 24-3 49-3 75z m-750 0c0 76 30 125 50 125 57 0 113 4 168 10-11-38-18-85-18-135 0-50 7-97 18-135-55 6-111 10-168 10-20 0-50 49-50 125z m348-514c2-5 2-8 1-9s-3-2-8-2h-66c-16 0-34 14-38 30l-79 316c16-2 33-3 50-5l140-330z m-73 371c-16 35-25 88-25 143 0 56 9 108 24 143 160 23 305 66 413 98 21 6 41 11 59 16-6-10-11-23-15-37-20-59-31-137-31-220s11-161 31-220c4-14 9-27 15-37-18 5-38 11-59 17-108 31-253 74-412 97z m597-61c-19-56-39-71-47-71s-28 15-47 71c-8 23-14 50-19 80 25 2 47 16 64 38 17 24 27 54 27 86 0 32-10 63-27 86-17 22-39 36-64 38 5 30 11 57 19 80 19 56 39 71 47 71s28-15 47-71c18-54 28-126 28-204s-10-150-28-204z" horiz-adv-x="1000" />

<glyph glyph-name="volume-high" unicode="&#xe85a;" d="M683 106c-8 0-15 3-20 9-8 11-7 27 4 35 53 43 83 107 83 175s-30 132-83 175c-11 8-12 24-4 35s25 12 35 3c65-52 102-130 102-213 0-83-37-161-102-213-4-4-10-6-15-6z m94-117c-7 0-14 4-19 10-9 11-7 26 4 35 88 72 138 178 138 291 0 113-50 219-138 291-11 9-13 25-4 35 9 11 24 13 35 4 100-81 157-201 157-330 0-128-57-249-157-330-5-4-10-6-16-6z m-189 233c-7 0-14 4-19 10-9 10-7 26 3 35 18 14 28 35 28 58 0 23-10 44-28 58-10 9-12 25-3 35s24 13 35 4c29-24 46-59 46-97 0-38-17-73-46-97-5-4-10-6-16-6z m-180 468c-13 0-25-6-37-16l-205-174h-91c-41 0-75-34-75-75v-200c0-41 34-75 75-75h91l205-174c12-10 24-16 37-16 0 0 0 0 0 0 13 0 25 7 33 18 6 9 9 21 9 35v625c0 36-21 52-42 52z m-358-465v200c0 14 11 25 25 25h75v-250h-75c-14 0-25 11-25 25z m350-208l-200 170v276l200 170v-616z" horiz-adv-x="1000" />

<glyph glyph-name="volume-medium" unicode="&#xe85b;" d="M683 106c-8 0-15 3-20 9-8 11-7 27 4 35 53 43 83 107 83 175s-30 132-83 175c-11 8-12 24-4 35s25 12 35 3c65-52 102-130 102-213 0-83-37-161-102-213-4-4-10-6-15-6z m-95 116c-7 0-14 4-19 10-9 10-7 26 3 35 18 14 28 35 28 58 0 23-10 44-28 58-10 9-12 25-3 35s24 13 35 4c29-24 46-59 46-97 0-38-17-73-46-97-5-4-10-6-16-6z m-180 468c-13 0-25-6-37-16l-205-174h-91c-41 0-75-34-75-75v-200c0-41 34-75 75-75h91l205-174c12-10 24-16 37-16 0 0 0 0 0 0 13 0 25 7 33 18 6 9 9 21 9 35v625c0 36-21 52-42 52z m-358-465v200c0 14 11 25 25 25h75v-250h-75c-14 0-25 11-25 25z m350-208l-200 170v276l200 170v-616z" horiz-adv-x="1000" />

<glyph glyph-name="volume-low" unicode="&#xe85c;" d="M588 222c-7 0-14 4-19 10-9 10-7 26 3 35 18 14 28 35 28 58 0 23-10 44-28 58-10 9-12 25-3 35s24 13 35 4c29-24 46-59 46-97 0-38-17-73-46-97-5-4-10-6-16-6z m-180 468c-13 0-25-6-37-16l-205-174h-91c-41 0-75-34-75-75v-200c0-41 34-75 75-75h91l205-174c12-10 24-16 37-16 0 0 0 0 0 0 13 0 25 7 33 18 6 9 9 21 9 35v625c0 36-21 52-42 52z m-358-465v200c0 14 11 25 25 25h75v-250h-75c-14 0-25 11-25 25z m350-208l-200 170v276l200 170v-616z" horiz-adv-x="1000" />

<glyph glyph-name="volume" unicode="&#xe85d;" d="M408 690c-13 0-25-6-37-16l-205-174h-91c-41 0-75-34-75-75v-200c0-41 34-75 75-75h91l205-174c12-10 24-16 37-16 0 0 0 0 0 0 13 0 25 7 33 18 6 9 9 21 9 35v625c0 36-21 52-42 52z m-358-465v200c0 14 11 25 25 25h75v-250h-75c-14 0-25 11-25 25z m350-208l-200 170v276l200 170v-616z" horiz-adv-x="1000" />

<glyph glyph-name="mic" unicode="&#xe85e;" d="M475 150c-96 0-175 79-175 175v300c0 97 79 175 175 175s175-78 175-175v-300c0-96-78-175-175-175z m0 600c-69 0-125-56-125-125v-300c0-69 56-125 125-125s125 56 125 125v300c0 69-56 125-125 125z m325-425c0 14-11 25-25 25s-25-11-25-25c0-152-123-275-275-275s-275 123-275 275c0 14-11 25-25 25s-25-11-25-25c0-171 132-311 300-324v-101h-75c-14 0-25-11-25-25s11-25 25-25h200c14 0 25 11 25 25s-11 25-25 25h-75v101c168 13 300 153 300 324z" horiz-adv-x="1000" />

<glyph glyph-name="time" unicode="&#xe85f;" d="M800 675v25c0 20-12 37-36 51-17 10-41 19-71 26-58 15-136 23-218 23-82 0-160-8-218-23-30-7-54-16-71-26-24-14-36-31-36-51v-25c0-131 80-250 200-300v-100c-120-50-200-168-200-300v-25c0-20 12-37 36-51 17-10 41-19 71-26 58-15 136-23 218-23 82 0 160 8 218 23 30 7 54 16 71 26 24 14 36 31 36 51v25c0 132-80 250-200 300v100c120 50 200 169 200 300z m-519 57c53 11 122 18 194 18 72 0 141-7 194-18 58-13 75-27 80-32-5-5-22-19-80-31-53-12-122-19-194-19-72 0-141 7-194 19-58 12-75 26-80 31 5 5 22 19 80 32z m286-498c109-38 183-143 183-259v-24c-2-3-16-18-81-33-53-11-122-18-194-18-72 0-141 7-194 18-65 15-79 30-81 33v24c0 116 74 221 183 259 10 4 17 13 17 24v134c0 11-7 20-17 24-98 35-168 123-181 225 15-7 33-13 55-18 58-15 136-23 218-23 82 0 160 8 218 23 22 5 40 11 55 18-13-102-82-190-181-225-10-4-17-13-17-24v-134c0-11 7-20 17-24z m116-210c-113 40-183 136-183 251v151c30 3 59 12 86 25 13 6 18 21 11 34s-21 17-33 11c-28-14-58-21-89-21s-61 7-89 21c-12 6-27 1-33-11s-1-28 11-34c27-13 56-22 86-25v-151c0-115-70-211-183-251-11-4-18-14-17-26 1-11 9-20 20-22 49-11 123-26 205-26s156 15 206 26c10 2 18 11 19 22 1 12-6 22-17 26z m-208-24c-44 0-85 4-122 10 33 21 62 48 86 79 14 20 27 41 36 63 10-22 22-43 36-63 24-31 53-58 86-79-37-6-78-10-122-10z" horiz-adv-x="1000" />

<glyph glyph-name="undo" unicode="&#xe860;" d="M876 626c-81 80-187 124-301 124s-220-44-300-124-125-187-125-301v-65l-107 108c-10 9-26 9-36 0s-9-26 0-36l150-150c5-5 12-7 18-7s13 2 18 7l150 150c9 10 9 26 0 36s-26 9-36 0l-107-108v65c0 207 168 375 375 375 207 0 375-168 375-375s-168-375-375-375c-14 0-25-11-25-25s11-25 25-25c114 0 220 44 301 125s124 187 124 300c0 114-44 220-124 301z" horiz-adv-x="1000" />

<glyph glyph-name="redo" unicode="&#xe861;" d="M125 626c80 80 187 124 300 124 114 0 220-44 301-124s124-187 124-301v-65l107 108c10 9 26 9 36 0 9-10 9-26 0-36l-150-150c-5-5-12-7-18-7s-13 2-18 7l-150 150c-9 10-9 26 0 36 10 9 26 9 36 0l107-108v65c0 207-168 375-375 375-207 0-375-168-375-375 0-207 168-375 375-375 14 0 25-11 25-25s-11-25-25-25c-113 0-220 44-300 125s-125 187-125 300c0 114 44 220 125 301z" horiz-adv-x="1000" />

<glyph glyph-name="sync" unicode="&#xe862;" d="M993 418c-10 9-26 9-36 0l-57-58c-3 103-44 200-117 273-76 75-176 117-283 117-149 0-284-82-354-213-6-12-2-28 11-34 12-7 27-2 33 10 61 116 180 187 310 187 190 0 344-151 350-339l-57 57c-10 9-26 9-36 0-9-10-9-26 0-36l100-100c5-5 12-7 18-7s13 2 18 7l100 100c9 10 9 26 0 36z m-150-221c-12 7-27 2-33-10-61-115-180-187-310-187-189 0-344 151-350 340l57-58c5-5 12-7 18-7s13 2 18 7c9 10 9 26 0 36l-100 100c-10 9-26 9-36 0l-100-100c-9-10-9-26 0-36s26-9 36 0l57 58c3-103 44-200 117-273 76-75 176-117 283-117 149 0 284 82 354 213 6 13 2 28-11 34z" horiz-adv-x="1000" />

<glyph glyph-name="db-check" unicode="&#xe863;" d="M1441 921c8-9 8-23 0-32l-829-831c-9-8-24-8-33 0l-403 404c-5 4-7 10-7 16 0 6 3 12 7 16 3 5 9 7 15 7s13-3 17-7l387-387 814 814c8 9 23 9 32 0z m-168 0c8-9 8-23 0-32l-830-831c-9-8-24-8-33 0l-403 404c-5 4-7 10-7 16 0 6 3 12 7 16 4 5 9 7 16 7s12-3 16-7l387-387 814 814c9 9 24 9 33 0z" horiz-adv-x="1499" />

<glyph glyph-name="clock" unicode="&#xe864;" d="M816-6c86 90 134 207 134 331 0 119-43 230-122 318l35 34 32-32c5-5 11-7 18-7s12 2 17 7c10 10 10 25 0 35l-100 100c-10 10-25 10-35 0s-10-25 0-35l32-32-34-35c-88 79-199 122-318 122s-230-43-318-122l-34 35 32 32c10 10 10 25 0 35s-25 10-35 0l-100-100c-10-10-10-25 0-35 5-5 11-7 18-7s12 2 17 7l33 32 34-34c-79-88-122-199-122-318 0-124 48-241 134-331l-102-101c-9-10-9-26 0-36 5-5 12-7 18-7s13 2 18 7l103 103c85-71 192-110 304-110s219 39 304 110l103-103c5-5 12-7 18-7s13 2 18 7c9 10 9 26 0 36l-102 101z m-766 331c0 234 191 425 425 425s425-191 425-425c0-234-191-425-425-425s-425 191-425 425z m707 163c-7 12-23 16-35 9l-246-142-191 134c-12 8-27 5-35-6-8-12-5-27 6-35l205-143c0 0 0 0 0-1 0 0 1 0 1 0 0 0 0 0 0-1 1 0 1 0 2 0 0 0 0 0 0 0 1-1 1-1 2-1 0 0 0 0 1 0 0-1 0-1 0-1 1 0 1 0 1 0 1 0 1 0 1 0 0 0 1 0 1 0 0 0 0-1 1-1 0 0 0 0 1 0 0 0 0 0 0 0 1 0 1 0 1 0 1 0 1 0 2 0 0 0 0 0 0 0 0 0 0 0 0 0 0 0 0 0 0 0 1 0 2 0 3 0 0 0 0 0 0 0 1 0 2 0 3 1 0 0 0 0 0 0 1 0 2 0 2 1 1 0 1 0 1 0 1 0 1 0 2 1 0 0 1 0 1 0 0 0 0 0 1 0l259 150c12 7 16 23 10 35z" horiz-adv-x="1000" />

<glyph glyph-name="download" unicode="&#xe865;" d="M743 368c-10 9-26 9-36 0l-207-208v565c0 14-11 25-25 25s-25-11-25-25v-565l-207 208c-10 9-26 9-36 0-9-10-9-26 0-36l250-250c5-5 12-7 18-7s13 2 18 7l250 250c9 10 9 26 0 36z m132-468h-800c-41 0-75 34-75 75v100c0 14 11 25 25 25s25-11 25-25v-100c0-14 11-25 25-25h800c14 0 25 11 25 25v100c0 14 11 25 25 25s25-11 25-25v-100c0-41-34-75-75-75z" horiz-adv-x="1000" />

<glyph glyph-name="upload" unicode="&#xe866;" d="M875-100h-800c-41 0-75 34-75 75v100c0 14 11 25 25 25s25-11 25-25v-100c0-14 11-25 25-25h800c14 0 25 11 25 25v100c0 14 11 25 25 25s25-11 25-25v-100c0-41-34-75-75-75z m-132 518l-250 250c-10 9-26 9-36 0l-250-250c-9-10-9-26 0-36s26-9 36 0l207 208v-515c0-14 11-25 25-25s25 11 25 25v515l207-208c5-5 12-7 18-7s13 2 18 7c9 10 9 26 0 36z" horiz-adv-x="1000" />

<glyph glyph-name="enter-down" unicode="&#xe867;" d="M643 268c-10 9-26 9-36 0l-107-108v615c0 14-11 25-25 25s-25-11-25-25v-615l-107 108c-10 9-26 9-36 0-9-10-9-26 0-36l150-150c5-5 12-7 18-7s13 2 18 7l150 150c9 10 9 26 0 36z m132-418h-600c-41 0-75 34-75 75v500c0 41 34 75 75 75h200c14 0 25-11 25-25s-11-25-25-25h-200c-14 0-25-11-25-25v-500c0-14 11-25 25-25h600c14 0 25 11 25 25v500c0 14-11 25-25 25h-200c-14 0-25 11-25 25s11 25 25 25h200c41 0 75-34 75-75v-500c0-41-34-75-75-75z" horiz-adv-x="1000" />

<glyph glyph-name="enter-up" unicode="&#xe868;" d="M775-150h-600c-41 0-75 34-75 75v500c0 41 34 75 75 75h200c14 0 25-11 25-25s-11-25-25-25h-200c-14 0-25-11-25-25v-500c0-14 11-25 25-25h600c14 0 25 11 25 25v500c0 14-11 25-25 25h-200c-14 0-25 11-25 25s11 25 25 25h200c41 0 75-34 75-75v-500c0-41-34-75-75-75z m-132 818l-150 150c-10 9-26 9-36 0l-150-150c-9-10-9-26 0-36s26-9 36 0l107 108v-565c0-14 11-25 25-25s25 11 25 25v565l107-108c5-5 12-7 18-7s13 2 18 7c9 10 9 26 0 36z" horiz-adv-x="1000" />

<glyph glyph-name="bug" unicode="&#xe869;" d="M875 250h-76c-3 55-16 108-39 155 52 15 90 63 90 120 0 14-11 25-25 25s-25-11-25-25c0-38-28-70-65-74-9 13-19 26-29 38-5 6-11 12-16 18 7 22 10 45 10 68 0 124-101 225-225 225s-225-101-225-225c0-23 4-46 11-68-6-6-12-12-17-18-10-12-20-25-29-38-36 4-65 36-65 74 0 14-11 25-25 25s-25-11-25-25c0-57 38-105 90-120-23-47-36-100-39-155h-76c-14 0-25-11-25-25s11-25 25-25h76c3-55 16-108 39-155-52-15-90-63-90-120 0-14 11-25 25-25s25 11 25 25c0 38 29 70 65 74 9-13 19-26 29-38 61-72 144-111 231-111s170 39 231 111c10 12 20 25 29 38 37-4 65-36 65-74 0-14 11-25 25-25s25 11 25 25c0 57-38 105-90 120 23 47 36 100 39 155h76c14 0 25 11 25 25s-11 25-25 25z m-400 500c97 0 175-78 175-175 0-11-1-21-3-32-51 37-110 57-172 57s-121-20-172-57c-2 11-3 21-3 32 0 97 79 175 175 175z m-275-525c0 169 110 309 250 324v-648c-140 15-250 155-250 324z m300-324v648c140-15 250-155 250-324s-110-309-250-324z" horiz-adv-x="1000" />

<glyph glyph-name="code" unicode="&#xe86a;" d="M250 100c-6 0-13 2-18 7l-200 200c-9 10-9 26 0 36l200 200c10 9 26 9 36 0 9-10 9-26 0-36l-183-182 183-182c9-10 9-26 0-36-5-5-12-7-18-7z m500 0c-6 0-13 2-18 7-9 10-9 26 0 36l183 182-183 182c-9 10-9 26 0 36 10 9 26 9 36 0l200-200c9-10 9-26 0-36l-200-200c-5-5-12-7-18-7z m-375 0c-4 0-9 1-13 4-12 7-15 23-8 34l250 400c7 12 23 16 34 8 12-7 16-22 8-34l-250-400c-4-8-13-12-21-12z" horiz-adv-x="1000" />

<glyph glyph-name="link" unicode="&#xe86b;" d="M534 200c-47 0-94 18-130 54-10 10-10 26 0 35s26 10 35 0c53-52 138-52 190 0l182 182c52 52 52 137 0 190-53 52-138 52-190 0l-153-154c-10-9-26-9-36 0-9 10-9 26 0 36l154 153c72 72 188 72 260 0s72-188 0-260l-182-182c-36-36-83-54-130-54z m-300-300c-47 0-94 18-130 54-72 72-72 189 0 260l182 182c72 72 188 72 260 0 10-10 10-25 0-35-10-10-25-10-35 0-53 52-138 52-190 0l-182-182c-52-52-52-137 0-190s138-52 190 0l153 154c10 9 26 9 36 0 9-10 9-26 0-36l-154-153c-36-36-83-54-130-54z" horiz-adv-x="1000" />

<glyph glyph-name="unlink" unicode="&#xe86c;" d="M675 275c-6 0-13 2-18 7-9 10-9 26 0 36l154 153c25 25 39 59 39 95s-14 69-39 95c-53 52-138 52-190 0l-153-154c-10-9-26-9-36 0-9 10-9 26 0 36l154 153c72 72 188 72 260 0 35-35 54-81 54-130s-19-95-54-130l-153-154c-5-5-12-7-18-7z m-441-375c-49 0-95 19-130 54-72 72-72 189 0 260l153 154c10 9 26 9 36 0 9-10 9-26 0-36l-154-153c-52-52-52-137 0-190 26-25 59-39 95-39s70 14 95 39l153 154c10 9 26 9 36 0 9-10 9-26 0-36l-154-153c-34-35-81-54-130-54z m41 600c-6 0-13 2-18 7l-100 100c-9 10-9 26 0 36 10 9 26 9 36 0l100-100c9-10 9-26 0-36-5-5-12-7-18-7z m100 50c-14 0-25 11-25 25v150c0 14 11 25 25 25s25-11 25-25v-150c0-14-11-25-25-25z m-150-150h-150c-14 0-25 11-25 25s11 25 25 25h150c14 0 25-11 25-25s-11-25-25-25z m550-400c-6 0-13 2-18 7l-100 100c-9 10-9 26 0 36 10 9 26 9 36 0l100-100c9-10 9-26 0-36-5-5-12-7-18-7z m100 200h-150c-14 0-25 11-25 25s11 25 25 25h150c14 0 25-11 25-25s-11-25-25-25z m-300-300c-14 0-25 11-25 25v150c0 14 11 25 25 25s25-11 25-25v-150c0-14-11-25-25-25z" horiz-adv-x="1000" />

<glyph glyph-name="like" unicode="&#xe86d;" d="M946 290c22 25 35 67 35 108 0 26-6 49-17 67-14 23-37 35-64 35h-131c71 130 89 227 54 290-25 44-71 60-103 60-12 0-23-9-24-22-9-66-60-144-139-215-76-69-169-123-264-156-12 25-38 43-68 43h-150c-41 0-75-34-75-75v-450c0-41 34-75 75-75h150c32 0 59 20 70 48 98-13 135-32 171-52 44-23 87-46 225-46 36 0 70 9 95 26 25 17 41 40 46 68 20 8 38 26 52 54 13 27 21 62 21 88 0 5 0 10 0 14 12 9 24 24 33 43 13 27 22 61 22 91 0 21-4 39-12 52-1 2-1 3-2 4z m-721-340h-150c-14 0-25 11-25 25v450c0 14 11 25 25 25h150c14 0 25-11 25-25v-450c0 0 0 0 0 0 0-14-11-25-25-25z m692 386c-8-15-15-20-19-20-13 0-25-12-25-25s12-25 25-25c3 0 4 0 6-4 4-6 6-16 6-28 0-22-7-49-17-69-10-20-20-27-24-27-14 0-25-12-25-25 0-9 4-17 11-22 2-15-5-58-25-85-7-11-15-17-21-17-13 0-25-11-25-25 0-44-48-64-93-64-126 0-161 19-202 41-38 20-81 43-189 56v410c105 34 208 94 291 168 79 72 132 150 149 222 14-5 29-14 39-31 17-30 29-105-75-278-4-8-4-17 0-25s13-13 22-13h174c10 0 16-3 22-12 5-9 9-23 9-40 0-22-5-45-14-62z" horiz-adv-x="1000" />

<glyph glyph-name="bad" unicode="&#xe86e;" d="M946 410c22-25 35-67 35-107 0-27-6-50-17-68-14-22-37-35-64-35h-131c71-130 89-227 54-290-25-44-71-60-103-60-12 0-23 9-24 22-9 66-60 144-139 216-76 68-169 122-264 155-12-25-38-43-68-43h-150c-41 0-75 34-75 75v450c0 41 34 75 75 75h150c32 0 59-20 70-48 98 13 135 32 171 52 44 23 87 46 225 46 36 0 70-9 95-26 25-17 41-40 46-68 20-8 38-26 52-54 13-27 21-62 21-88 0-5 0-10 0-14 12-9 24-24 33-42 13-28 22-62 22-92 0-21-4-39-12-52-1-1-1-2-2-4z m-721 340h-150c-14 0-25-11-25-25v-450c0-14 11-25 25-25h150c14 0 25 11 25 25v450c0 0 0 0 0 0 0 14-11 25-25 25z m692-386c-8 15-15 20-19 20-13 0-25 12-25 25s12 25 25 25c3 0 4 0 6 4 4 6 6 16 6 28 0 22-7 49-17 69-10 20-20 28-24 28-14 0-25 11-25 25 0 8 4 16 11 21 2 15-5 58-25 86-7 10-15 16-21 16-13 0-25 11-25 25 0 44-48 64-93 64-126 0-161-19-202-41-38-20-81-43-189-56v-410c105-34 208-93 291-168 79-72 132-150 149-222 14 5 29 14 39 31 17 30 29 105-75 278-4 8-4 18 0 25s13 13 22 13h174c10 0 16 4 22 12 5 9 9 24 9 41 0 21-5 44-14 61z" horiz-adv-x="1000" />

<glyph glyph-name="search" unicode="&#xe86f;" d="M943-108l-297 324c67 70 104 162 104 259 0 100-39 194-110 265s-165 110-265 110-194-39-265-110-110-165-110-265 39-194 110-265 165-110 265-110c86 0 168 29 234 82l298-324c5-5 11-8 18-8 6 0 12 2 17 7 10 9 11 25 1 35z m-893 583c0 179 146 325 325 325s325-146 325-325-146-325-325-325-325 146-325 325z" horiz-adv-x="1000" />

<glyph glyph-name="close" unicode="&#xe870;" d="M535 325l283 282c9 10 9 26 0 36-10 9-26 9-36 0l-282-283-282 283c-10 9-26 9-36 0-9-10-9-26 0-36l283-282-283-282c-9-10-9-26 0-36 5-5 12-7 18-7s13 2 18 7l282 283 282-283c5-5 12-7 18-7s13 2 18 7c9 10 9 26 0 36l-283 282z" horiz-adv-x="1000" />

<glyph glyph-name="menu" unicode="&#xe871;" d="M875 550h-750c-14 0-25 11-25 25s11 25 25 25h750c14 0 25-11 25-25s-11-25-25-25z m0-250h-750c-14 0-25 11-25 25s11 25 25 25h750c14 0 25-11 25-25s-11-25-25-25z m0-250h-750c-14 0-25 11-25 25s11 25 25 25h750c14 0 25-11 25-25s-11-25-25-25z" horiz-adv-x="1000" />

<glyph glyph-name="list" unicode="&#xe872;" d="M975 50h-750c-14 0-25 11-25 25s11 25 25 25h750c14 0 25-11 25-25s-11-25-25-25z m0 250h-750c-14 0-25 11-25 25s11 25 25 25h750c14 0 25-11 25-25s-11-25-25-25z m0 250h-750c-14 0-25 11-25 25s11 25 25 25h750c14 0 25-11 25-25s-11-25-25-25z m-900-50c-41 0-75 34-75 75s34 75 75 75 75-34 75-75-34-75-75-75z m0 100c-14 0-25-11-25-25s11-25 25-25 25 11 25 25-11 25-25 25z m0-350c-41 0-75 34-75 75 0 41 34 75 75 75s75-34 75-75c0-41-34-75-75-75z m0 100c-14 0-25-11-25-25s11-25 25-25 25 11 25 25-11 25-25 25z m0-350c-41 0-75 34-75 75s34 75 75 75 75-34 75-75-34-75-75-75z m0 100c-14 0-25-11-25-25s11-25 25-25 25 11 25 25-11 25-25 25z" horiz-adv-x="1000" />

<glyph glyph-name="chevron-up" unicode="&#xe873;" d="M0 100c0-6 2-13 7-18 10-9 26-9 36 0l432 433 432-433c10-9 26-9 36 0s9 26 0 36l-450 450c-10 9-26 9-36 0l-450-450c-5-5-7-12-7-18z" horiz-adv-x="1000" />

<glyph glyph-name="chevron-down" unicode="&#xe874;" d="M0 550c0 6 2 13 7 18 10 9 26 9 36 0l432-433 432 433c10 9 26 9 36 0s9-26 0-36l-450-450c-10-9-26-9-36 0l-450 450c-5 5-7 12-7 18z" horiz-adv-x="1000" />

<glyph glyph-name="chevron-left" unicode="&#xe875;" d="M700-150c6 0 13 2 18 7 9 10 9 26 0 36l-433 432 433 432c9 10 9 26 0 36s-26 9-36 0l-450-450c-9-10-9-26 0-36l450-450c5-5 12-7 18-7z" horiz-adv-x="1000" />

<glyph glyph-name="chevron-right" unicode="&#xe876;" d="M250-150c-6 0-13 2-18 7-9 10-9 26 0 36l433 432-433 432c-9 10-9 26 0 36s26 9 36 0l450-450c9-10 9-26 0-36l-450-450c-5-5-12-7-18-7z" horiz-adv-x="1000" />

<glyph glyph-name="arrow-up" unicode="&#xe877;" d="M457 818l-300-300c-9-10-9-26 0-36 10-9 26-9 36 0l257 258v-815c0-14 11-25 25-25s25 11 25 25v815l257-258c10-9 26-9 36 0 5 5 7 12 7 18s-2 13-7 18l-300 300c-10 9-26 9-36 0z" horiz-adv-x="1000" />

<glyph glyph-name="arrow-down" unicode="&#xe878;" d="M493-118l300 300c9 10 9 26 0 36-10 9-26 9-36 0l-257-258v815c0 14-11 25-25 25s-25-11-25-25v-815l-257 258c-10 9-26 9-36 0-5-5-7-12-7-18s2-13 7-18l300-300c10-9 26-9 36 0z" horiz-adv-x="1000" />

<glyph glyph-name="arrow-left" unicode="&#xe879;" d="M32 343l300 300c10 9 26 9 36 0 9-10 9-26 0-36l-258-257h815c14 0 25-11 25-25s-11-25-25-25h-815l258-257c9-10 9-26 0-36-5-5-12-7-18-7s-13 2-18 7l-300 300c-9 10-9 26 0 36z" horiz-adv-x="1000" />

<glyph glyph-name="arrow-right" unicode="&#xe87a;" d="M968 343l-300 300c-10 9-26 9-36 0-9-10-9-26 0-36l258-257h-815c-14 0-25-11-25-25s11-25 25-25h815l-258-257c-9-10-9-26 0-36 5-5 12-7 18-7s13 2 18 7l300 300c9 10 9 26 0 36z" horiz-adv-x="1000" />

<glyph glyph-name="move" unicode="&#xe87b;" d="M918 343l-150 150c-10 9-26 9-36 0-9-10-9-26 0-36l108-107h-340v340l107-108c5-5 12-7 18-7s13 2 18 7c9 10 9 26 0 36l-150 150c-10 9-26 9-36 0l-150-150c-9-10-9-26 0-36s26-9 36 0l107 108v-340h-340l108 107c9 10 9 26 0 36-10 9-26 9-36 0l-150-150c-9-10-9-26 0-36l150-150c5-5 12-7 18-7s13 2 18 7c9 10 9 26 0 36l-108 107h340v-340l-107 108c-10 9-26 9-36 0-9-10-9-26 0-36l150-150c5-5 12-7 18-7s13 2 18 7l150 150c9 10 9 26 0 36-10 9-26 9-36 0l-107-108v340h340l-108-107c-9-10-9-26 0-36 5-5 12-7 18-7s13 2 18 7l150 150c9 10 9 26 0 36z" horiz-adv-x="1000" />

<glyph glyph-name="warn" unicode="&#xe87c;" d="M925-100h-900c-9 0-17 5-22 12s-4 17 0 25l450 800c5 8 13 13 22 13s17-5 22-13l450-800c4-8 4-17 0-25-5-7-13-12-22-12z m-857 50h814l-407 724-407-724z m407 200c-14 0-25 11-25 25v250c0 14 11 25 25 25s25-11 25-25v-250c0-14-11-25-25-25z m0-150c-14 0-25 11-25 25v50c0 14 11 25 25 25s25-11 25-25v-50c0-14-11-25-25-25z" horiz-adv-x="1000" />

<glyph glyph-name="question" unicode="&#xe87d;" d="M811 661c-90 90-209 139-336 139s-246-49-336-139-139-209-139-336 49-246 139-336 209-139 336-139 246 49 336 139 139 209 139 336-49 246-139 336z m-336-761c-234 0-425 191-425 425s191 425 425 425c234 0 425-191 425-425s-191-425-425-425z m0 200c-14 0-25 11-25 25v100c0 14 11 25 25 25 97 0 175 79 175 175s-78 175-175 175-175-78-175-175c0-14-11-25-25-25s-25 11-25 25c0 124 101 225 225 225 124 0 225-101 225-225 0-116-88-211-200-224v-76c0-14-11-25-25-25z m0-150c0 0 0 0 0 0-14 0-25 11-25 25v50c0 14 11 25 25 25 0 0 0 0 0 0 14 0 25-11 25-25v-50c0-14-11-25-25-25z" horiz-adv-x="1000" />

<glyph glyph-name="circle-bars" unicode="&#xe87e;" d="M475-150c-127 0-246 49-336 139s-139 209-139 336c0 127 49 246 139 336s209 139 336 139c127 0 246-49 336-139s139-209 139-336-49-246-139-336c-90-90-209-139-336-139z m0 900c-234 0-425-191-425-425s191-425 425-425 425 191 425 425-191 425-425 425z m250-300h-500c-14 0-25 11-25 25s11 25 25 25h500c14 0 25-11 25-25s-11-25-25-25z m0-150h-500c-14 0-25 11-25 25s11 25 25 25h500c14 0 25-11 25-25s-11-25-25-25z m0-150h-500c-14 0-25 11-25 25s11 25 25 25h500c14 0 25-11 25-25s-11-25-25-25z" horiz-adv-x="1000" />

<glyph glyph-name="circle-check" unicode="&#xe87f;" d="M475-150c-127 0-246 49-336 139s-139 209-139 336c0 127 49 246 139 336s209 139 336 139c127 0 246-49 336-139s139-209 139-336-49-246-139-336c-90-90-209-139-336-139z m0 900c-234 0-425-191-425-425s191-425 425-425 425 191 425 425-191 425-425 425z m-100-625c-6 0-13 2-18 7l-150 150c-9 10-9 26 0 36 10 9 26 9 36 0l132-133 332 333c10 9 26 9 36 0 9-10 9-26 0-36l-350-350c-5-5-12-7-18-7z" horiz-adv-x="1000" />

<glyph glyph-name="error" unicode="&#xe880;" d="M717 144l-204 181 204 181c10 10 11 25 2 36-9 10-25 11-36 2l-208-186-208 186c-11 9-26 8-36-2-9-11-8-26 2-36l204-181-204-181c-10-9-11-25-2-36 5-5 12-8 19-8 6 0 12 2 17 6l208 186 208-186c5-4 11-6 17-6 7 0 14 3 19 8 9 11 8 27-2 36z m-242-294c-127 0-246 49-336 139s-139 209-139 336c0 127 49 246 139 336s209 139 336 139c127 0 246-49 336-139s139-209 139-336-49-246-139-336c-90-90-209-139-336-139z m0 900c-234 0-425-191-425-425s191-425 425-425 425 191 425 425-191 425-425 425z" horiz-adv-x="1000" />

<glyph glyph-name="circle-plus" unicode="&#xe881;" d="M811 661c-90 90-209 139-336 139s-246-49-336-139-139-209-139-336 49-246 139-336 209-139 336-139 246 49 336 139 139 209 139 336-49 246-139 336z m-336-761c-234 0-425 191-425 425s191 425 425 425c234 0 425-191 425-425s-191-425-425-425z m300 450h-275v275c0 14-11 25-25 25s-25-11-25-25v-275h-275c-14 0-25-11-25-25s11-25 25-25h275v-275c0-14 11-25 25-25s25 11 25 25v275h275c14 0 25 11 25 25s-11 25-25 25z" horiz-adv-x="1000" />

<glyph glyph-name="circle-minus" unicode="&#xe882;" d="M811 661c-90 90-209 139-336 139s-246-49-336-139-139-209-139-336 49-246 139-336 209-139 336-139 246 49 336 139 139 209 139 336-49 246-139 336z m-336-761c-234 0-425 191-425 425s191 425 425 425c234 0 425-191 425-425s-191-425-425-425z m300 400h-600c-14 0-25 11-25 25s11 25 25 25h600c14 0 25-11 25-25s-11-25-25-25z" horiz-adv-x="1000" />

<glyph glyph-name="user-id" unicode="&#xe883;" d="M525 465h229v-33h-229v33z m0-197h229v-33h-229v33z m0 98h163v-32h-163v32z m-33 295v99h-131v-99h-361v-721h852v721h-360z m328-32v-66h-328v66h328z m-427 98h66v-164h-66v164z m-360-98h328v-66h-328v66z m0-656v557h787v-557h-787z m450 146c-23 10-79 29-114 39-3 1-3 1-3 14 0 10 4 20 8 29 4 9 10 25 11 39 6 6 13 18 17 41 4 20 3 27 0 34 0 1-1 2-1 3-1 4 1 29 4 48 2 13-1 41-19 64-11 14-33 32-73 35l-21 0c-39-3-61-21-73-35-18-23-21-51-18-64 3-19 5-44 4-48-1-1-1-2-1-3-3-7-5-14-1-34 5-23 12-35 17-41 2-14 7-30 12-39 3-7 4-17 4-30 0-12 0-12-3-13-35-11-92-31-114-41-17-7-21-20-21-31 0-4 0-9 0-15h33v15c0 0 0 0 0 1 1 0 1 0 1 0 21 9 76 29 111 40 26 8 26 32 26 44 0 18-2 32-8 44-3 7-7 19-8 29l-2 10-6 7c-1 1-6 8-10 26-2 13-1 15-1 16 1 3 2 5 3 8 2 13-1 46-4 61-1 5 0 23 12 38 11 13 27 20 48 22l19 0c22-2 38-9 49-22 11-15 13-33 12-38-3-15-7-48-4-61l0-2 1-1c0-1 1-3 1-5 1-1 2-3-1-16-3-18-8-25-9-26l-7-7-1-10c-1-10-5-22-9-29-5-12-11-27-11-43 0-12 0-37 27-45 33-10 87-29 110-38 4-2 5-4 5-4v-14h33c0 6 0 11 0 15 0 11-8 26-25 33z" horiz-adv-x="853.5" />

<glyph glyph-name="target" unicode="&#xe884;" d="M463 206c136 11 245 120 258 256h-101v51h101c-13 137-122 245-258 257v-100h-51v100c-135-13-243-121-255-257h101v-51h-101c12-135 120-243 255-256v102h51v-102z m414 307h0v-51h-105c-12-165-144-296-309-308v-104h-52v104c-163 14-293 144-306 308h-105v51h105c13 164 143 295 307 308v106h51v-106c165-12 297-143 309-308h105z" horiz-adv-x="927" />

<glyph glyph-name="arrow-left-circle" unicode="&#xe885;" d="M139 661c90 90 209 139 336 139s246-49 336-139 139-209 139-336-49-246-139-336-209-139-336-139-246 49-336 139-139 209-139 336 49 246 139 336z m336-761c234 0 425 191 425 425s-191 425-425 425c-234 0-425-191-425-425s191-425 425-425z m-293 443l200 200c10 9 26 9 36 0 9-10 9-26 0-36l-158-157h515c14 0 25-11 25-25s-11-25-25-25h-515l158-157c9-10 9-26 0-36-5-5-12-7-18-7s-13 2-18 7l-200 200c-9 10-9 26 0 36z" horiz-adv-x="1000" />

<glyph glyph-name="arrow-right-circle" unicode="&#xe886;" d="M811 661c-90 90-209 139-336 139s-246-49-336-139-139-209-139-336 49-246 139-336 209-139 336-139 246 49 336 139 139 209 139 336-49 246-139 336z m-336-761c-234 0-425 191-425 425s191 425 425 425c234 0 425-191 425-425s-191-425-425-425z m293 443l-200 200c-10 9-26 9-36 0-9-10-9-26 0-36l158-157h-515c-14 0-25-11-25-25s11-25 25-25h515l-158-157c-9-10-9-26 0-36 5-5 12-7 18-7s13 2 18 7l200 200c9 10 9 26 0 36z" horiz-adv-x="1000" />

<glyph glyph-name="ban" unicode="&#xe887;" d="M436 108c93 0 177 33 243 89l-525 530c-2 2-3 3-5 5-56-66-91-152-91-246 0-209 169-378 378-378z m0 756c-94 0-180-34-246-91 1-1 1-1 2-2 1-1 2-2 3-3l525-531c59 67 94 154 94 249 0 209-169 378-378 378z m0-814c-241 0-436 195-436 436s195 436 436 436 436-195 436-436-195-436-436-436z" horiz-adv-x="922" />

<glyph glyph-name="twitter" unicode="&#xe888;" d="M906 680c0 8 0 16 0 25-1 12 2 24 7 34-9 8-17 18-21 30-3 9-4 19-2 28-10 3-19 9-27 17-30 32-71 50-115 50-87 0-158-71-158-158 0-12 1-24 4-38 4-19-1-39-14-54-12-14-30-22-48-22-1 0-2 0-3 0-156 8-304 68-420 169 5-48 30-90 70-117 24-16 34-46 25-73-8-26-33-44-60-44h-2c-3 0-5 1-7 1 23-34 58-58 99-67 29-6 50-31 51-60 1-30-19-56-48-64l-1 0c27-20 59-31 94-32 27-1 50-18 59-44s0-53-21-70c-38-29-78-52-121-70 31-5 62-7 93-7 391 0 566 331 566 566z m174 143c-30-44-68-83-111-114 1-10 1-19 1-29 0-293-223-630-630-630-125 0-242 36-340 99 18-2 35-2 53-2 104 0 199 35 275 94-97 2-178 66-207 154 14-2 28-4 42-4 20 0 40 3 58 8-101 21-177 110-177 217v3c29-16 64-27 100-28-60 40-99 107-99 184 0 41 11 79 30 112 109-134 273-222 457-232-3 17-5 34-5 51 0 122 98 221 221 221 64 0 121-26 162-69 50 9 98 28 140 53-16-51-51-95-97-122 44 5 88 17 127 34z" horiz-adv-x="1130" />

<glyph glyph-name="chevron-left-1" unicode="&#xe889;" d="M139 661c90 90 209 139 336 139s246-49 336-139 139-209 139-336-49-246-139-336-209-139-336-139-246 49-336 139-139 209-139 336 49 246 139 336z m336-761c234 0 425 191 425 425s-191 425-425 425c-234 0-425-191-425-425s191-425 425-425z m75 150c6 0 13 2 18 7 9 10 9 26 0 36l-233 232 233 232c9 10 9 26 0 36-10 9-26 9-36 0l-250-250c-9-10-9-26 0-36l250-250c5-5 12-7 18-7z" horiz-adv-x="1000" />

<glyph glyph-name="chevron-right-1" unicode="&#xe88a;" d="M811 661c-90 90-209 139-336 139s-246-49-336-139-139-209-139-336 49-246 139-336 209-139 336-139 246 49 336 139 139 209 139 336-49 246-139 336z m-336-761c-234 0-425 191-425 425s191 425 425 425c234 0 425-191 425-425s-191-425-425-425z m-75 150c-6 0-13 2-18 7-9 10-9 26 0 36l233 232-233 232c-9 10-9 26 0 36 10 9 26 9 36 0l250-250c9-10 9-26 0-36l-250-250c-5-5-12-7-18-7z" horiz-adv-x="1000" />

<glyph glyph-name="crop" unicode="&#xe88b;" d="M975 100h-150c-14 0-25 11-25 25s11 25 25 25h150c14 0 25-11 25-25s-11-25-25-25z m-350 0h-350c-14 0-25 11-25 25v350c0 14 11 25 25 25s25-11 25-25v-325h325c14 0 25-11 25-25s-11-25-25-25z m-350 550c-14 0-25 11-25 25v150c0 14 11 25 25 25s25-11 25-25v-150c0-14-11-25-25-25z m450-800c-14 0-25 11-25 25v675h-675c-14 0-25 11-25 25s11 25 25 25h700c14 0 25-11 25-25v-700c0-14-11-25-25-25z" horiz-adv-x="1000" />

<glyph glyph-name="frame" unicode="&#xe88c;" d="M925 500c-14 0-25 11-25 25v100c0 14-11 25-25 25h-100c-14 0-25 11-25 25s11 25 25 25h100c41 0 75-34 75-75v-100c0-14-11-25-25-25z m-900 0c-14 0-25 11-25 25v100c0 41 34 75 75 75h100c14 0 25-11 25-25s-11-25-25-25h-100c-14 0-25-11-25-25v-100c0-14-11-25-25-25z m150-550h-100c-41 0-75 34-75 75v100c0 14 11 25 25 25s25-11 25-25v-100c0-14 11-25 25-25h100c14 0 25-11 25-25s-11-25-25-25z m700 0h-100c-14 0-25 11-25 25s11 25 25 25h100c14 0 25 11 25 25v100c0 14 11 25 25 25s25-11 25-25v-100c0-41-34-75-75-75z" horiz-adv-x="1000" />

<glyph glyph-name="frame-contract" unicode="&#xe88d;" d="M725 400h-100c-41 0-75 34-75 75v100c0 14 11 25 25 25s25-11 25-25v-100c0-14 11-25 25-25h100c14 0 25-11 25-25s-11-25-25-25z m-400 0h-100c-14 0-25 11-25 25s11 25 25 25h100c14 0 25 11 25 25v100c0 14 11 25 25 25s25-11 25-25v-100c0-41-34-75-75-75z m250-350c-14 0-25 11-25 25v100c0 41 34 75 75 75h100c14 0 25-11 25-25s-11-25-25-25h-100c-14 0-25-11-25-25v-100c0-14-11-25-25-25z m-200 0c-14 0-25 11-25 25v100c0 14-11 25-25 25h-100c-14 0-25 11-25 25s11 25 25 25h100c41 0 75-34 75-75v-100c0-14-11-25-25-25z" horiz-adv-x="1000" />

<glyph glyph-name="layers" unicode="&#xe88e;" d="M500 250c-3 0-7 1-10 2l-475 200c-9 4-15 13-15 23s6 19 15 23l475 200c7 3 14 3 20 0l475-200c9-4 15-13 15-23s-6-19-15-23l-475-200c-3-1-7-2-10-2z m-411 225l411-173 411 173-411 173-411-173z m411-375c-3 0-7 1-10 2l-475 200c-12 5-18 20-13 33s20 18 33 13l465-196 465 196c13 5 28-1 33-13 5-13-1-28-13-33l-475-200c-3-1-7-2-10-2z m0-150c-3 0-7 1-10 2l-475 200c-12 5-18 20-13 33s20 18 33 13l465-196 465 196c13 5 28-1 33-13 5-13-1-28-13-33l-475-200c-3-1-7-2-10-2z" horiz-adv-x="1000" />

<glyph glyph-name="list-1" unicode="&#xe88f;" d="M165 173c0 23-19 42-42 42s-41-19-41-42 19-41 41-41 42 19 42 41z m82 0c0-68-56-123-124-123s-123 55-123 123 55 124 123 124 124-56 124-124z m164-41h987v83h-987v-83z m-246 370c0 23-19 41-42 41s-41-18-41-41 19-41 41-41 42 19 42 41z m82 0c0-68-56-123-124-123s-123 55-123 123 55 124 123 124 124-56 124-124z m164-41h987v82h-987v-82z m-246 370c0 23-19 41-42 41s-41-18-41-41 19-41 41-41 42 19 42 41z m82 0c0-68-56-123-124-123s-123 55-123 123 55 124 123 124 124-56 124-124z m1151 41v-82h-987v82h987z" horiz-adv-x="1448" />

<glyph glyph-name="text-format" unicode="&#xe890;" d="M825-100h-700c-14 0-25 11-25 25s11 25 25 25h700c14 0 25-11 25-25s-11-25-25-25z m-27 185l-128 300c0 0-1 0-1 0l-171 400c-4 9-13 15-23 15s-19-6-23-15l-171-400c0 0 0 0 0 0l-129-300c-5-13 1-27 13-33 13-5 28 1 33 13l122 285h310l122-285c4-9 13-15 23-15 3 0 7 1 10 2 13 6 18 20 13 33z m-456 315l133 312 134-312h-267z" horiz-adv-x="1000" />

<glyph glyph-name="text-format-remove" unicode="&#xe891;" d="M675 800h-600c-14 0-25-11-25-25s11-25 25-25h271l-96-571c-2-13 7-26 21-29 1 0 3 0 4 0 12 0 23 9 25 21l96 579h279c14 0 25 11 25 25s-11 25-25 25z m-150-750h-450c-14 0-25-11-25-25s11-25 25-25h450c14 0 25 11 25 25s-11 25-25 25z m260-25l83 82c9 10 9 26 0 36-10 9-26 9-36 0l-82-83-82 83c-10 9-26 9-36 0-9-10-9-26 0-36l83-82-83-82c-9-10-9-26 0-36 5-5 12-7 18-7s13 2 18 7l82 83 82-83c5-5 12-7 18-7s13 2 18 7c9 10 9 26 0 36l-83 82z" horiz-adv-x="1000" />

<glyph glyph-name="text-size" unicode="&#xe892;" d="M348 35l-64 150c0 0 0 0 0 0l-86 200c-4 9-13 15-23 15s-19-6-23-15l-86-200c0 0 0 0 0 0l-64-150c-5-13 1-27 13-33 13-5 28 1 33 13l58 135h138l58-135c4-9 13-15 23-15 3 0 7 1 10 2 13 6 18 20 13 33z m-221 165l48 112 48-112h-96z m871-165l-104 250c0 0 0 0 0 0l-146 350c-4 9-13 15-23 15s-19-6-23-15l-146-350c0 0 0 0 0 0l-104-250c-5-13 1-28 13-33 13-5 28 1 33 13l98 235h258l98-235c4-9 13-15 23-15 3 0 7 1 10 2 12 5 18 20 13 33z m-381 265l108 260 108-260h-216z" horiz-adv-x="1000" />

<glyph glyph-name="bold-2" unicode="&#xe893;" d="M500 400h-125c-14 0-25 11-25 25v150c0 14 11 25 25 25h125c55 0 100-45 100-100s-45-100-100-100z m-100 50h100c28 0 50 22 50 50s-22 50-50 50h-100v-100z m150-350h-175c-14 0-25 11-25 25v150c0 14 11 25 25 25h175c55 0 100-45 100-100s-45-100-100-100z m-150 50h150c28 0 50 22 50 50s-22 50-50 50h-150v-100z m150-200h-275c-41 0-75 34-75 75v650c0 41 34 75 75 75h225c138 0 250-112 250-250 0-41-10-81-29-117 50-48 79-113 79-183 0-138-112-250-250-250z m-275 750c-14 0-25-11-25-25v-650c0-14 11-25 25-25h275c110 0 200 90 200 200 0 62-28 119-77 158-10 8-13 23-5 34 21 32 32 69 32 108 0 110-90 200-200 200h-225z" horiz-adv-x="1000" />

<glyph glyph-name="check" unicode="&#xe894;" d="M1265 917c9-10 9-24 0-32l-825-827c-9-8-23-8-32 0l-401 402c-5 4-7 10-7 16 0 6 2 12 7 16 4 4 9 7 16 7s11-3 16-7l385-385 808 810c9 8 24 8 33 0z" horiz-adv-x="1323" />

<glyph glyph-name="underline" unicode="&#xe895;" d="M725-50h-450c-14 0-25 11-25 25s11 25 25 25h450c14 0 25-11 25-25s-11-25-25-25z m-225 150c-138 0-250 112-250 250v375c0 14 11 25 25 25s25-11 25-25v-375c0-110 90-200 200-200 110 0 200 90 200 200v375c0 14 11 25 25 25s25-11 25-25v-375c0-138-112-250-250-250z" horiz-adv-x="1000" />

<glyph glyph-name="strike" unicode="&#xe896;" d="M825 750h-700c-14 0-25-11-25-25s11-25 25-25h325v-225c0-14 11-25 25-25s25 11 25 25v225h325c14 0 25 11 25 25s-11 25-25 25z m-350-800c-14 0-25 11-25 25v200c0 14 11 25 25 25s25-11 25-25v-200c0-14-11-25-25-25z m450 300h-900c-14 0-25 11-25 25v100c0 14 11 25 25 25h900c14 0 25-11 25-25v-100c0-14-11-25-25-25z m-875 50h850v50h-850v-50z" horiz-adv-x="1000" />

<glyph glyph-name="highlight" unicode="&#xe897;" d="M993 368c-10 9-26 9-36 0l-179-180c-29-29-77-29-106 0l-234 234c-14 14-21 33-21 53s7 39 21 53l180 179c9 10 9 26 0 36-10 9-26 9-36 0l-179-180c-23-23-36-54-36-88 0-14 2-28 6-41l-366-366c-4-5-7-11-7-18v-75c0-14 11-25 25-25h475c7 0 13 3 18 7l166 166c13-4 27-6 41-6 34 0 65 13 88 36l180 179c9 10 9 26 0 36z m-503-368h-440v40l350 350c1-1 2-2 3-3l234-234c1-1 2-2 3-3l-150-150z" horiz-adv-x="1000" />

</font>
</defs>
</svg>
